<svg width="172" height="45" viewBox="0 0 172 45" fill="none" xmlns="http://www.w3.org/2000/svg">
<path d="M16.2681 17.9546C15.0277 14.3029 13.4295 10.3796 13.0797 9.53265C12.8571 9.04524 12.7696 9.22103 12.6344 9.48471C12.054 10.8671 10.1059 16.4763 9.53346 18.2183C9.446 18.4819 9.53346 18.5778 9.66863 18.5778C10.7341 18.6258 11.7518 18.6258 13.0399 18.6258C14.6381 18.6258 15.8785 18.5778 16.2283 18.4899C16.3556 18.4899 16.3556 18.2662 16.2681 17.9546ZM16.1806 3.16427C16.2284 3.73958 16.6657 5.25777 17.2461 6.72801C19.5042 12.9206 23.1856 22.629 25.404 27.4392C26.4218 29.7085 26.9545 30.0681 27.9722 30.3318C28.5924 30.4676 28.7674 30.6434 28.7674 30.8192C28.7674 30.995 28.2823 31.1308 27.9245 31.1308C26.7239 31.1308 25.5789 30.955 23.448 30.955C20.7446 30.955 19.4565 31.1788 18.1287 31.1788C17.5562 31.1788 17.1984 31.1308 17.1984 30.8671C17.1984 30.6035 17.5562 30.4676 18.081 30.3797C19.2816 30.2039 20.1642 29.6686 19.9893 28.462C19.7269 27.1676 18.4388 23.5159 17.2381 20.4476C17.103 20.136 16.7929 20.0001 16.5703 20.0001H9.30288C8.90532 20.0001 8.77015 20.2638 8.59522 20.6713C8.1102 21.8299 6.95728 24.9462 6.51201 26.6881C6.11445 28.0225 6.11445 28.9574 6.51201 29.4528C6.99703 30.0361 7.57747 30.124 8.54751 30.3877C8.99278 30.5235 9.21541 30.6993 9.21541 30.8352C9.21541 31.0989 8.81785 31.1468 8.19766 31.1468C7.30713 31.1468 5.75665 30.971 4.25388 30.971C3.14867 30.971 2.12296 31.1947 0.795118 31.1947C0.310096 31.1947 0 31.1468 0 30.8831C0 30.6594 0.445266 30.5715 0.890532 30.4357C2.88628 30.0361 3.59393 29.4528 5.23187 25.8012C6.64718 22.597 10.3286 13.1923 12.547 7.09557C12.6742 6.50428 12.7219 6.19265 12.7219 5.88102C12.7219 5.74518 12.7696 5.52145 12.9445 5.4815C13.9623 4.99408 15.1152 3.78752 15.3855 2.98848C15.5207 2.67685 15.6082 2.54102 15.8308 2.54102C15.9978 2.54102 16.1806 2.85264 16.1806 3.16427Z" fill="white"/>
<path d="M48.1286 30.4276C46.928 30.116 46.7133 29.7564 46.6656 26.9997V26.8079C46.6259 26.4963 46.5941 26.1208 46.5861 25.6653C46.5702 24.6026 46.5623 23.0844 46.5782 21.4783V21.4144C46.5702 18.8574 46.0852 16.8758 45.0277 15.861C44.6778 15.4935 44.2723 15.1419 43.7714 14.8782C43.1671 14.5586 42.4276 14.3428 41.4814 14.3428C40.5432 14.3428 39.6606 14.5666 38.8655 14.9262C37.975 15.3257 37.1322 15.9489 36.2496 16.6601C36.1542 16.748 36.0269 16.708 36.0269 16.6121C35.9792 15.9889 36.0746 14.8782 36.1144 14.3828C36.1144 14.1591 35.8918 13.9753 35.7566 14.0232C35.0489 14.4228 32.5682 15.5334 31.0575 15.853C30.6519 15.9409 30.4293 16.0768 30.4293 16.2126C30.4293 16.3005 30.3816 16.3884 30.7871 16.6601C31.6697 17.2833 31.8049 17.6429 31.8049 18.0824C31.8049 22.1815 31.7572 26.0568 31.6697 28.6378C31.622 29.6605 31.5345 30.0201 30.2941 30.2438C29.8966 30.3317 29.499 30.5155 29.499 30.6913C29.499 30.915 29.8568 31.0509 30.3418 31.0509C31.6697 31.0509 32.8226 30.963 33.4031 30.963C34.4208 30.963 36.9493 31.1388 37.3945 31.1388C37.7046 31.1388 38.1897 31.0908 38.1897 30.8191C38.1897 30.5954 38.0147 30.5075 37.482 30.3797C36.6789 30.108 36.3688 29.8443 36.2416 28.8615C36.1939 28.3261 36.1065 26.0968 36.0667 23.3321C36.0667 21.0628 36.019 18.9693 36.019 18.1223C36.019 17.7628 36.2416 17.3632 36.4643 17.1874C36.997 16.74 37.9273 16.3405 38.8576 16.3405C39.4777 16.3405 40.2729 16.4763 40.9408 16.9637C41.7041 17.571 42.0619 18.2262 42.1971 19.8163C42.2527 20.4396 42.2766 21.2146 42.2766 22.1735V26.0728C42.2766 26.2966 42.2845 26.4883 42.2845 26.6242C42.3322 27.9186 42.5071 28.9813 43.175 29.7404C43.6362 30.3078 44.1371 30.6913 44.6858 30.947C45.5763 30.955 46.9996 31.0828 47.9935 31.0828C48.391 31.0828 48.6137 30.9949 48.6137 30.8112C48.6137 30.6034 48.3513 30.5155 48.1286 30.4276Z" fill="white"/>
<path d="M58.9582 29.2211C58.5606 29.269 57.8927 29.4448 57.4475 29.5327C57.1851 29.5807 56.9624 29.3569 56.9147 29.0932C56.8273 28.47 56.8273 28.0625 56.8273 26.4164C56.8273 22.589 56.875 16.7081 57.0499 15.102C57.0499 14.8383 56.9624 14.6146 56.8273 14.6146C56.2468 14.6146 54.8315 15.0141 53.2333 15.0141H50.9275C50.6174 15.0141 50.1721 15.102 50.1721 15.3257C50.1721 15.4615 50.4425 15.6373 50.9672 15.7252C52.2553 15.949 52.4303 16.1727 52.5654 17.6829C52.6529 18.8415 52.6529 21.3345 52.6529 22.0057C52.6529 23.1244 52.6052 25.3457 52.5177 26.776C52.47 27.7588 52.2553 28.1983 51.9452 28.47C51.2296 29.0932 50.4822 29.3649 49.5042 29.3649C48.5739 29.3649 47.7788 29.1012 47.1507 28.3821C46.9837 28.1104 46.769 27.7509 46.6577 26.808C46.618 26.4964 46.5862 26.1208 46.5782 25.6653C46.5623 24.6026 46.5543 23.0844 46.5702 21.4784V21.4144C46.5623 18.8575 46.0773 16.8759 45.0198 15.8611C44.6699 15.4935 44.2644 15.1419 43.7635 14.8782C43.0081 14.9582 42.1732 15.0141 41.3066 15.0141C40.909 15.0141 40.6387 15.102 40.6387 15.2378C40.6387 15.3737 40.7738 15.5494 41.1316 15.7732C41.8393 16.1807 42.1096 16.3964 42.1494 17.2914C42.1653 17.563 42.1812 18.5698 42.1971 19.8323C42.2051 20.8791 42.221 22.1016 42.2369 23.2363C42.2448 24.3629 42.2607 25.4097 42.2766 26.0888C42.2766 26.3126 42.2846 26.5043 42.2846 26.6402C42.3323 27.9346 42.5072 28.9974 43.1751 29.7565C43.6363 30.3238 44.1372 30.7073 44.6858 30.963C45.306 31.2507 45.9739 31.3625 46.6736 31.3625C47.8265 31.3625 48.8045 31.0909 49.5996 30.7393C50.355 30.4277 51.5954 29.5327 52.3428 28.8296C52.4303 28.7337 52.478 28.8775 52.478 29.0932C52.478 29.5327 52.4303 30.3398 52.4303 30.7792C52.4303 31.0909 52.4303 31.3146 52.5177 31.4984C52.6052 31.5863 52.7881 31.6342 53.1379 31.4984C54.426 30.8751 58.0597 30.2519 58.5447 30.2039C58.99 30.116 59.5227 30.0201 59.5227 29.7964C59.5307 29.5807 59.308 29.2211 58.9582 29.2211Z" fill="white"/>
<path d="M73.9618 23.7395C73.9618 22.2214 73.5642 19.4646 72.2761 17.8586C71.7036 17.1474 70.2804 15.9409 68.4675 15.9409C67.7599 15.9409 67.092 16.1646 66.7819 16.3404C66.6069 16.4762 66.5195 16.7879 66.4718 17.0995C66.2968 17.8985 66.3366 22.0456 66.3366 23.7795C66.3366 25.4255 66.599 27.9185 67.0442 28.8614C67.2669 29.3968 67.9745 29.8842 68.555 30.1958C68.9525 30.4195 69.8431 30.5953 70.4155 30.5953C70.9483 30.5953 72.0535 30.1479 72.6737 29.173C73.3813 28.1023 73.9141 25.7851 73.9141 23.7395H73.9618ZM76.1722 28.4219C74.1367 30.5154 71.3379 31.4983 68.8174 31.4983C67.092 31.4983 64.7861 30.9629 63.3629 30.2997C63.1402 30.2118 62.8778 30.2118 62.0748 30.5234C61.8998 30.6113 61.7647 30.3476 61.7647 30.2118C61.8998 29.4128 62.027 28.342 62.1225 25.2657C62.2099 22.8606 62.2974 16.0447 62.3451 11.3703C62.3451 7.67075 62.2974 5.35353 62.1702 4.46659C62.035 3.75544 61.9475 3.48376 61.0172 2.90845C60.6594 2.64477 60.5322 2.50893 60.5322 2.42103C60.5322 2.2852 60.7072 2.10941 61.2399 2.02151C61.7726 1.88567 64.2136 1.4462 65.8039 0.775002C66.2014 0.599212 66.4241 0.55127 66.599 0.55127C66.6864 0.55127 66.7739 0.727059 66.7739 1.22247C66.6387 4.02711 66.5115 11.4662 66.5115 15.4295C66.5115 15.7411 66.6467 15.789 66.7739 15.7411C67.7917 15.03 69.3421 14.4946 70.8529 14.4946C73.6437 14.4946 75.4168 15.7411 76.4346 16.8997C77.8101 18.4179 78.4701 20.4155 78.4701 22.2453C78.478 25.3057 77.1502 27.4391 76.1722 28.4219Z" fill="white"/>
<path d="M86.3665 8.64567C86.3665 10.2038 85.1658 10.875 84.1958 10.875C83.2655 10.875 82.3352 9.98806 82.3352 8.82945C82.3352 7.27131 83.4881 6.56016 84.4184 6.56016C85.5236 6.55217 86.3665 7.6149 86.3665 8.64567ZM81.0869 15.7252C83.0826 15.3257 83.8778 15.0141 85.4282 14.3908C85.786 14.255 85.961 14.1271 86.0961 14.1271C86.2313 14.1271 86.3188 14.263 86.2711 14.7504C86.1836 15.6853 86.1836 17.9545 86.1836 19.8243C86.1836 24.8103 86.1836 28.3741 86.2711 29.0453C86.3585 29.8044 86.5812 30.2039 87.4717 30.4276C87.9567 30.5635 88.0919 30.6913 88.0919 30.8751C88.0919 31.0988 87.7818 31.1867 87.424 31.1867C86.6686 31.1867 85.6509 30.963 83.7903 30.963C81.8423 30.963 80.8245 31.0509 80.3315 31.0509C79.934 31.0509 79.5762 30.915 79.5762 30.7392C79.5762 30.5155 79.8386 30.4276 80.3713 30.3397C81.5242 30.076 81.8343 29.4927 81.8343 27.9346C81.8343 26.6002 81.9695 18.8495 81.9695 18.402C81.9695 17.555 81.9695 17.3792 80.8166 16.5722C80.5939 16.3964 80.4588 16.2606 80.4588 16.0848C80.4667 15.9889 80.6019 15.861 81.0869 15.7252Z" fill="white"/>
<path d="M94.5949 16.2126C93.2193 17.2354 91.9312 19.4168 91.9312 22.8047C91.9312 27.4392 94.6823 30.068 97.6084 30.068C98.809 30.068 100.089 29.7085 101.155 28.6857C101.512 28.2862 101.64 27.615 101.687 26.768C101.775 25.6094 101.91 20.04 101.64 18.4819C101.552 17.9465 101.33 17.6349 101.242 17.4991C100.224 16.0768 98.4512 15.4535 97.0756 15.4535C95.8432 15.4615 95.3105 15.7731 94.5949 16.2126ZM101.735 15.054C101.822 15.1019 101.91 14.9182 101.91 14.8303C101.91 13.9833 101.862 5.78508 101.862 3.37996C101.862 3.02039 101.815 2.8446 101.687 2.62087C101.465 2.30924 100.892 2.04555 100.399 1.90972C100.137 1.82182 99.8665 1.68598 99.8665 1.55015C99.8665 1.41431 100.041 1.32641 100.264 1.28646C101.592 1.06273 103.238 0.487417 103.675 0.263685C103.898 0.127847 104.12 0 104.248 0C104.383 0 104.47 0.223732 104.423 0.799044C104.335 2.18139 104.112 18.2182 104.112 21.5103C104.112 25.4336 104.16 28.2782 104.2 29.4847C104.2 29.6605 104.375 29.8843 104.51 29.8843C104.772 29.8843 105.44 29.7085 106.728 29.3489C107.038 29.261 107.174 29.3489 107.174 29.5247C107.174 29.7884 106.816 30.1959 106.021 30.3237C104.733 30.5874 103.047 30.9949 101.902 31.4823C101.679 31.5303 101.544 31.3066 101.544 31.1707C101.592 30.4995 101.679 29.8763 101.632 29.3409C101.632 29.253 101.544 29.1172 101.457 29.2051C99.5484 30.6753 98.0854 31.3865 96.3998 31.3865C94.8891 31.3865 93.1159 30.899 91.5257 29.4688C90.6431 28.6697 89.2676 26.4883 89.2676 23.6357C89.2676 19.9362 91.3031 17.579 92.9013 16.3724C94.3643 15.3017 96.3998 14.5426 98.6182 14.5426C99.5643 14.5666 101.067 14.8303 101.735 15.054Z" fill="#B02727"/>
<path d="M113.193 8.42184C113.193 9.49256 112.215 9.89208 111.778 9.89208C111.07 9.89208 110.489 9.22089 110.489 8.46978C110.489 7.5349 111.245 6.9516 111.865 6.9516C112.787 6.9516 113.193 7.79859 113.193 8.42184ZM109.114 15.773C109.996 15.5094 111.197 15.014 111.817 14.7023C112.215 14.4786 112.437 14.3907 112.525 14.3907C112.66 14.3907 112.748 14.5265 112.7 15.014C112.612 15.8609 112.612 18.8014 112.612 22.0535C112.612 25.2577 112.612 28.4699 112.7 29.229C112.787 30.2118 113.32 30.3396 113.94 30.4755C114.385 30.5634 114.608 30.6513 114.608 30.835C114.608 31.0588 114.25 31.1467 113.9 31.1467C113.638 31.1467 111.77 30.9709 110.839 30.9709C109.599 30.9709 108.979 31.0588 108.494 31.0588C108.231 31.0588 107.961 30.9709 107.961 30.7951C107.961 30.6592 108.136 30.5314 108.804 30.3956C109.686 30.1718 110.179 29.8602 110.219 27.9425C110.267 26.6081 110.354 18.322 110.354 17.8745C110.354 17.3871 110.267 17.0755 108.979 16.4522C108.756 16.3643 108.669 16.2285 108.669 16.1406C108.669 15.9888 108.804 15.8609 109.114 15.773Z" fill="#B02727"/>
<path d="M120.589 15.861C119.658 16.7559 119.213 18.5778 119.213 19.9601C119.213 21.8299 119.968 23.8834 120.724 24.6345C121.431 25.3057 122.274 25.881 123.65 25.881C125.868 25.881 127.419 23.388 127.419 21.2945C127.419 19.3768 127.021 17.6429 126.003 16.3964C125.208 15.4615 124.493 14.8382 123.077 14.8382C122.147 14.8303 121.344 15.1898 120.589 15.861ZM120.326 41.6941C121.479 42.5411 122.274 43.0765 124.668 43.0765C125.646 43.0765 127.323 43.0285 128.786 41.9658C130.027 41.0789 131.315 39.1132 131.315 36.9798C131.315 35.0621 130.027 33.3681 127.283 33.3681C125.598 33.3681 123.562 33.3681 122.362 33.456C121.209 33.5439 120.899 33.7197 120.724 33.9034C119.833 34.6625 118.593 36.3565 118.593 38.1783C118.601 39.0653 119.038 40.6713 120.326 41.6941ZM127.681 15.4136C128.039 15.5893 128.349 15.6373 129.279 15.6373C130.122 15.6373 131.983 15.5494 132.603 15.5494C132.825 15.5494 133.048 16.0368 133.048 16.4843C133.048 16.9717 132.738 17.2434 132.563 17.2434C131.943 17.2434 130.217 17.1555 129.724 17.1555C129.637 17.1555 129.462 17.3313 129.462 17.4192C129.462 17.7308 129.55 18.402 129.55 19.3369C129.55 22.1016 128.309 24.2829 126.759 25.3936C125.296 26.3764 124.055 26.5043 123.435 26.5043C122.863 26.5043 122.02 26.3685 121.662 26.3285C121.487 26.2806 121.129 26.4164 121.089 26.4643C120.557 26.8239 119.849 27.575 119.316 28.1583C118.919 28.5578 118.784 29.0453 118.784 29.229C118.784 30.8351 120.819 31.1467 123.085 31.1467C124.461 31.1467 127.116 31.0109 128.23 31.0109C130.05 31.0109 130.71 31.4584 131.553 32.1216C132.571 32.9686 133.064 34.4388 133.064 35.8611C133.064 38.9774 130.671 41.782 127.792 43.3002C126.417 44.0113 124.866 44.5467 122.918 44.5467C119.547 44.5467 116.406 42.9007 116.406 39.4648C116.406 38.5778 116.852 37.9067 117.162 37.5071C117.424 37.1955 119.157 34.8783 120.04 33.7676C120.088 33.7197 120.175 33.408 120.04 33.3681C118.625 33.0564 116.406 31.5383 116.406 29.8922C116.406 29.7164 116.629 29.5327 116.716 29.4927C118.004 28.6937 119.642 27.1355 120.35 26.2406C120.398 26.1927 120.35 26.0169 120.263 25.9769C118.847 25.082 116.852 23.1243 116.852 20.3197C116.852 18.402 117.607 17.0676 118.712 16.0448C120.04 14.7983 121.726 14.2629 123.324 14.2629C125.423 14.2549 127.283 15.1898 127.681 15.4136Z" fill="#B02727"/>
<path d="M138.112 8.42184C138.112 9.49256 137.134 9.89208 136.696 9.89208C135.989 9.89208 135.408 9.22089 135.408 8.46978C135.408 7.5349 136.164 6.9516 136.784 6.9516C137.714 6.9516 138.112 7.79859 138.112 8.42184ZM134.033 15.773C134.923 15.5094 136.116 15.014 136.736 14.7023C137.134 14.4786 137.356 14.3907 137.444 14.3907C137.579 14.3907 137.667 14.5265 137.619 15.014C137.531 15.8609 137.531 18.8014 137.531 22.0535C137.531 25.2577 137.531 28.4699 137.619 29.229C137.706 30.2118 138.239 30.3396 138.859 30.4755C139.304 30.5634 139.527 30.6513 139.527 30.835C139.527 31.0588 139.169 31.1467 138.819 31.1467C138.557 31.1467 136.689 30.9709 135.758 30.9709C134.518 30.9709 133.898 31.0588 133.413 31.0588C133.15 31.0588 132.88 30.9709 132.88 30.7951C132.88 30.6592 133.055 30.5314 133.723 30.3956C134.605 30.1718 135.098 29.8602 135.138 27.9425C135.186 26.6081 135.273 18.322 135.273 17.8745C135.273 17.3871 135.186 17.0755 133.898 16.4522C133.675 16.3643 133.588 16.2285 133.588 16.1406C133.588 15.9888 133.723 15.8609 134.033 15.773Z" fill="#B02727"/>
<path d="M141.587 29.3091C141.229 28.7338 141.054 27.9268 141.054 26.856V17.5871C141.054 17.0118 141.006 16.7002 140.879 16.6522C140.656 16.5643 140.084 16.4285 139.638 16.3406C139.328 16.2927 139.106 16.1169 139.106 15.981C139.106 15.8931 139.058 15.8452 139.551 15.6215C140.704 15.2219 141.992 14.0633 142.962 12.7289C143.224 12.3294 143.582 12.4173 143.582 12.5931C143.535 13.0406 143.447 14.0633 143.495 14.6866C143.495 14.8224 143.542 15.0462 143.717 15.0462C144.513 15.0462 148.464 14.9103 149.482 14.9103C149.569 14.9103 149.744 15.174 149.744 15.4457C149.744 16.0689 149.522 16.5563 149.299 16.5563C147.661 16.5563 145.18 16.5084 143.98 16.5084C143.407 16.5084 143.36 16.6442 143.36 16.9079C143.36 17.5791 143.407 24.5228 143.495 25.9931C143.582 27.5512 143.67 28.0866 143.98 28.534C144.6 29.421 145.578 29.8285 146.954 29.8285C148.369 29.8285 149.212 29.3411 149.569 29.1173C149.832 28.8936 149.967 28.9415 149.967 29.1173C149.967 29.381 149.482 29.8764 148.949 30.2759C148.019 30.9471 146.779 31.3467 145.538 31.3467C143.67 31.3626 142.342 30.7394 141.587 29.3091Z" fill="#B02727"/>
<path d="M158.212 29.0852C158.435 28.8614 158.697 28.4619 158.785 27.9265C158.92 27.1674 159.007 25.3856 159.007 23.7875C159.007 23.7395 158.92 23.5238 158.832 23.5638C158.212 23.6517 155.199 24.7703 154.221 25.2577C153.823 25.4815 153.203 26.1047 153.203 27.4391C153.203 28.8215 154.491 29.8442 155.994 29.8442C156.837 29.8442 157.68 29.5806 158.212 29.0852ZM160.955 16.9716C161.178 17.6828 161.353 19.5126 161.353 20.8949C161.353 22.3172 161.178 26.7759 161.178 27.9345C161.178 28.8694 161.576 29.7164 162.903 29.7164C163.301 29.7164 163.746 29.5806 164.231 29.3169C164.494 29.181 164.677 29.229 164.494 29.6764C164.009 30.7472 162.721 31.4583 161.393 31.4583C160.327 31.4583 159.31 30.5714 158.912 29.4527C158.864 29.3648 158.737 29.3648 158.689 29.4048C157.361 30.5634 156.073 31.4104 154.3 31.4104C152.479 31.4104 150.802 29.8922 150.802 27.6708C150.802 26.2485 152.042 25.4016 152.4 25.2178C153.418 24.6425 157.584 23.3001 158.387 23.0364C158.785 22.9006 159.007 22.4611 159.007 22.3652C159.055 21.8298 159.095 21.0707 159.095 20.3196C159.095 18.4898 158.785 17.0675 157.99 16.4922C157.369 16.0448 156.614 15.7811 156.081 15.7811C155.374 15.7811 154.976 15.9169 154.221 16.4043C153.863 16.7159 153.553 17.0276 153.426 17.6109C153.378 17.7867 153.378 18.0104 153.378 18.2821C153.378 18.4179 153.29 18.5458 153.203 18.6416C152.805 18.9053 151.565 19.4407 151.382 19.4407C151.207 19.4407 151.024 19.217 151.024 19.0412C151.024 18.8174 151.199 18.5538 151.692 17.9305C152.797 16.5961 154.531 15.5733 155.064 15.3016C156.129 14.7663 156.837 14.5425 157.592 14.5425C158.968 14.5186 160.431 15.3656 160.955 16.9716Z" fill="#B02727"/>
<path d="M169.694 20.1359C169.694 25.6573 169.782 27.8867 169.829 28.7816C169.877 29.8923 170.092 30.2518 171.38 30.4276C171.642 30.4756 172 30.6034 172 30.7392C172 30.915 171.738 31.0509 171.07 31.0509C170.625 31.0509 169.122 30.963 168.319 30.963C167.166 30.963 165.973 31.0509 165.528 31.0509C164.955 31.0509 164.772 31.0029 164.772 30.7872C164.772 30.6114 164.947 30.5634 165.615 30.3877C166.72 30.1639 166.991 29.7165 167.166 27.7588C167.301 26.2007 167.428 18.9374 167.476 13.1922C167.476 9.09313 167.524 5.84101 167.476 3.70757C167.476 2.77268 167.428 2.54895 166.235 1.78986C165.925 1.61407 165.838 1.56613 165.838 1.43029C165.838 1.29445 166.061 1.1666 166.458 1.07072C167.524 0.807035 168.319 0.53536 169.297 0.135838C169.432 0.0878949 169.654 0 169.782 0C169.869 0 169.917 0.263685 169.917 0.53536C169.917 0.846987 169.694 8.64566 169.694 14.8782V20.1359Z" fill="#B02727"/>
</svg>
