<?xml version="1.0" encoding="UTF-8"?>
<svg id="Layer_1" xmlns="http://www.w3.org/2000/svg" version="1.1" viewBox="0 0 3111.8 3113">
  <!-- Generator: Adobe Illustrator 29.3.1, SVG Export Plug-In . SVG Version: 2.1.0 Build 151)  -->
  <defs>
    <style>
      .st0 {
        fill: #00b8ff;
      }
    </style>
  </defs>
  <path class="st0" d="M563.2,1.9c1.4,0,2.9,0,4.3,0,3.9,0,7.8,0,11.7,0,4.3,0,8.5,0,12.8,0,7.5,0,15,0,22.5,0,11.2,0,22.5,0,33.7,0,19.2,0,38.3,0,57.5,0,19.4,0,38.8,0,58.2,0q1.8,0,3.7,0c5,0,10,0,15,0,54.9,0,109.8,0,164.7,0,.7,0,1.4,0,2.1,0,3.5,0,7,0,10.5,0,29.4,0,58.9,0,88.3,0,14.1,0,28.2,0,42.3,0,.7,0,1.4,0,2.1,0,33.8,0,67.5,0,101.3,0q1.1,0,2.2,0c45.9,0,91.8,0,137.7,0,3.8,0,7.5,0,11.3,0,6,0,12.1,0,18.1,0,.7,0,1.5,0,2.3,0,1.5,0,3,0,4.5,0,10.6,0,21.2,0,31.8,0,3.8,0,7.6,0,11.4,0,71.6,0,143.2,0,214.7,0q1.1,0,2.3,0c23.5,0,47.1,0,70.6,0,24.1,0,48.3,0,72.4,0q1.1,0,2.3,0c46.6,0,93.2,0,139.8,0q1.1,0,2.2,0c31.6,0,63.3,0,94.9,0,12.7,0,25.4,0,38.2,0,2.1,0,4.2,0,6.3,0,32.2,0,64.5,0,96.7,0,.7,0,1.4,0,2.1,0,11.2,0,22.3,0,33.5,0,45.8,0,91.7,0,137.5,0,6.2,0,12.5,0,18.7,0,1.2,0,2.4,0,3.7,0,19.3,0,38.7,0,58,0,19,0,38.1,0,57.1,0,11.1,0,22.3,0,33.4,0,7.4,0,14.9,0,22.3,0,4.2,0,8.4,0,12.6,0,16.6,0,33,.3,49.5,1.8q1.1,0,2.1.2c96.7,8.6,190.1,42.5,333,145.4,2,1.8,4.1,3.6,6.1,5.3,5.2,4.5,9.9,9.4,14.7,14.3,3.4,3.5,6.9,6.9,10.3,10.3,1.5,1.5,2.9,2.9,4.4,4.4q1.1,1.1,2.2,2.2c4.7,4.7,9.1,9.5,13.4,14.5.9,1.1,1.9,2.2,2.9,3.2,7.2,8.3,14,16.9,20.6,25.7,1.5,2,3,3.9,4.5,5.9,52.6,68.4,87.3,149.7,115.5,348.4,0,4.3,0,8.6,0,12.8,0,7.5,0,15,0,22.5,0,11.2,0,22.4,0,33.7,0,19.1,0,38.3,0,57.4,0,19.4,0,38.7,0,58.1,0,1.2,0,2.5,0,3.7,0,5,0,10,0,15,0,46.5,0,92.9,0,139.4v4.2q0,1,0,2.1c0,9.1,0,18.2,0,27.2,0,.7,0,1.4,0,2.1,0,32.2,0,64.4,0,96.6,0,3.5,0,7,0,10.5,0,10.6,0,21.2,0,31.8,0,32.3,0,64.6,0,97v2.2c0,46.6,0,93.2,0,139.7,0,.7,0,1.5,0,2.3,0,24.9,0,49.8,0,74.7,0,75.3,0,150.5,0,285,0,24.9,0,49.8,0,74.7,0,.7,0,1.5,0,2.3,0,46.6,0,93.1,0,139.7v2.2c0,32.3,0,64.6,0,96.9,0,10.6,0,21.2,0,31.8,0,3.5,0,7,0,10.5,0,32.2,0,64.4,0,96.6,0,.7,0,1.4,0,2.1,0,9.1,0,18.1,0,27.2,0,.7,0,1.4,0,2.1v4.2c0,47,0,94,0,141.1,0,5,0,10,0,14.9,0,1.2,0,2.4,0,3.7,0,19.3,0,38.6,0,57.9,0,19,0,38,0,57,0,11.1,0,22.3,0,33.4,0,7.4,0,14.8,0,22.2,0,4.2,0,8.4,0,12.6.2,81.7-17.3,162.9-134.4,369.8-.4.5-.9,1.1-1.4,1.6-1.5,1.8-3,3.5-4.5,5.3-.4.5-.9,1-1.3,1.6-9.8,11.4-20.3,22.2-31,32.8-2.1,2.1-4.2,4.2-6.4,6.4-1.4,1.4-2.8,2.8-4.1,4.1q-.9.9-1.9,1.9c-4.3,4.3-8.8,8.4-13.5,12.3-1.1.9-2.2,1.9-3.2,2.9-8.3,7.2-16.9,14-25.7,20.6-2,1.5-3.9,3-5.9,4.5-70,53.8-153.6,89.1-296.7,113.7-.7,0-1.5.1-2.3.2-15.9,1.3-31.6,1.6-47.5,1.6-4,0-8,0-12,0-7,0-14,0-21,0-10.5,0-20.9,0-31.4,0-17.8,0-35.7,0-53.5,0-18.1,0-36.1,0-54.2,0q-1.7,0-3.5,0c-5.8,0-11.7,0-17.5,0-42.1,0-84.2,0-126.4,0-41.7,0-83.4,0-125.1,0-1.3,0-2.6,0-3.9,0-11.8,0-23.7,0-35.5,0-29.4,0-58.9,0-88.3,0q-1,0-2,0c-43.4,0-86.7,0-130.1,0-.7,0-1.4,0-2.1,0-21.1,0-42.1,0-63.2,0-23.3,0-46.6,0-69.9,0-.7,0-1.4,0-2.1,0-66.6,0-133.2,0-199.8,0-2.8,0-5.6,0-8.5,0-26,0-51.9,0-77.9,0q-1,0-2.1,0h-6.3c-55.8,0-111.6,0-167.5,0-2.7,0-5.3,0-8,0-119.6,0-239.2,0-358.9,0q-1.7,0-3.4,0c-56,0-112,0-168,0v-21.2c0-9,0-17.9,0-26.9,0-5.5,0-11,0-16.5v-3.4c0-15.6,0-31.2,0-46.8,0-12.7,0-25.3,0-38,0-1.3,0-2.6,0-3.9,0-37.1,0-74.1,0-111.2,0-24.2,0-48.4,0-72.7,0-3.3,0-6.7,0-10,0-67.5,0-135,0-202.5,0-43.7,0-87.4,0-131,0-5.9,0-11.7,0-17.6q0-1.7,0-3.5c0-16.9,0-33.8,0-50.7,0-30.9,0-61.7,0-92.6,0-1.2,0-2.3,0-3.5-.2-84.6-2.8-168.9-7.7-253.3-.2-2.9-.3-5.7-.5-8.6-.1-1.9-.2-3.8-.3-5.7-.5-8.5-.6-16.9-.5-25.4q6.6-.3,9.9,2.1c1,.9,1.9,1.9,2.8,2.8,1.1,1,2.1,2,3.2,3.1q.8.8,1.6,1.5c3.9,3.8,8.2,7.1,12.5,10.4.6.5,1.3,1,1.9,1.5,79.8,63.5,181.8,111.2,285.3,110.8,1,0,2.1,0,3.2,0,88.6-.3,177.8-28.1,249.6-80.3.6-.5,1.3-.9,2-1.4,13.3-9.7,26.3-19.9,38.4-31.2,2.1-1.9,4.2-3.7,6.3-5.6,5.2-4.5,10-9.4,14.9-14.3.9-.9,1.8-1.8,2.7-2.7,5.1-5.1,10-10.3,14.7-15.8.9-1.1,1.9-2.2,2.9-3.2,7.8-8.9,15.1-18.2,22.1-27.8q.8-1.1,1.6-2.2c12.7-17.1,23.9-35.2,34.4-53.8.5-.9,1.1-1.9,1.6-2.9,16-28.6,28.5-58.2,39.4-89.1.4-1.2.8-2.3,1.3-3.6,16.1-46,25.3-94.6,30.5-143,.2-1.6.3-3.1.5-4.7,5.8-52.5,5.3-107.9,0-160.4-.2-2.3-.4-4.6-.7-6.8-3.3-33.8-8.8-67.4-16.6-100.4-.2-.7-.3-1.3-.5-2-8-33.9-19-67.3-33.5-99-.5-1-1-2.1-1.4-3.2-25.8-55.9-62.5-109.7-111.6-147.8-.6-.5-1.2-1-1.9-1.5-14.4-11.3-29.3-21.4-45.1-30.5-.7-.4-1.5-.8-2.2-1.3-44-25.5-93.7-40-143.9-47-1-.1-2.1-.3-3.2-.4-20.6-2.7-41.3-3.7-62.1-3.6q-1.8,0-3.5,0c-20.3,0-40.1,1.1-60.1,4.4-.7.1-1.3.2-2,.3-52.6,8.5-102.5,26.8-150,50.7-1.1.5-2.2,1.1-3.3,1.7-30.5,15.3-59.6,33.7-86.7,54.3q-.8.6-1.7,1.3c-7.6,5.7-15,11.6-22.3,17.7-.5.4-1,.8-1.5,1.3-7.1,5.9-14,11.9-20.7,18.2q-1.4,1.2-2.8,2.5t-1.4,1.4c-2.9,2.7-4.2,3.6-8.3,3.7-1.1,0-2.2,0-3.3-.1-2.2-16.2-4.1-32.5-5.9-48.8-.3-2.4-.5-4.8-.8-7.2-.5-4.9-1.1-9.9-1.6-14.8-.7-6.3-1.4-12.7-2.1-19-.5-4.9-1.1-9.8-1.6-14.7-.3-2.3-.5-4.7-.8-7-.4-3.2-.7-6.5-1.1-9.7-.1-1-.2-1.9-.3-2.9q-.1-1.3-.3-2.7-.1-1.1-.3-2.3-.2-1.9-.2-3.9h-144v2071q-35.2-4.7-47.4-7.2c-.7-.1-1.4-.3-2.2-.4-94.1-19.3-182.8-61.4-256.4-123.3q-.8-.7-1.6-1.4c-1.8-1.5-3.5-3-5.3-4.5-.5-.4-1-.9-1.6-1.3-11.4-9.8-22.2-20.3-32.8-31-2.1-2.1-4.2-4.2-6.4-6.4-1.4-1.4-2.8-2.8-4.1-4.1q-.9-.9-1.9-1.9c-4.3-4.3-8.4-8.8-12.3-13.5-.9-1.1-1.9-2.2-2.9-3.2-7.2-8.3-14-16.9-20.6-25.7-1.5-2-3-3.9-4.5-5.9C60.4,2808.6,24.7,2722.6,0,2531.8c0-4.3,0-8.6,0-12.8,0-7.5,0-15,0-22.5,0-11.2,0-22.4,0-33.7,0-19.1,0-38.3,0-57.4,0-19.4,0-38.7,0-58.1,0-1.2,0-2.5,0-3.7,0-5,0-10,0-15,0-46.5,0-92.9,0-139.4,0-1.4,0-2.8,0-4.2,0-.7,0-1.4,0-2.1,0-9.1,0-18.2,0-27.2,0-.7,0-1.4,0-2.1,0-32.2,0-64.4,0-96.6,0-3.5,0-7,0-10.5,0-10.6,0-21.2,0-31.8,0-32.3,0-64.6,0-97,0-.7,0-1.4,0-2.2,0-46.6,0-93.2,0-139.7,0-.7,0-1.5,0-2.3,0-24.9,0-49.8,0-74.7,0-75.3,0-150.5,0-285,0-24.9,0-49.8,0-74.7,0-.7,0-1.5,0-2.3,0-46.6,0-93.1,0-139.7,0-.7,0-1.4,0-2.2,0-32.3,0-64.6,0-96.9,0-10.6,0-21.2,0-31.8,0-3.5,0-7,0-10.5,0-32.2,0-64.4,0-96.6,0-.7,0-1.4,0-2.1,0-9.1,0-18.1,0-27.2q0-1,0-2.1c0-1.4,0-2.8,0-4.2,0-47,0-94,0-141.1,0-5,0-10,0-14.9,0-1.2,0-2.4,0-3.7,0-19.3,0-38.6,0-57.9,0-19,0-38,0-57,0-11.1,0-22.3,0-33.4,0-7.4,0-14.8,0-22.2,0-4.2,0-8.4,0-12.6-.2-75.2,14.1-151.2,47.4-228.8.5-1,.9-2,1.4-3.1,22.1-49.7,50.6-96.2,85.6-137.9.4-.5.9-1.1,1.4-1.6,10.1-11.9,20.5-23.4,31.6-34.4,3.1-3,6.1-6.1,9.1-9.2,1.6-1.6,3.1-3.1,4.7-4.7.8-.8,1.5-1.6,2.3-2.4,4.8-4.8,9.7-9.4,14.9-13.8,1.1-.9,2.2-1.9,3.2-2.9,8.3-7.2,16.9-14,25.7-20.6,2-1.5,3.9-3,5.9-4.5C302.7,63.6,386.4,27.8,563.2,1.9ZM2206.4,1017c-1.3.2-2.7.3-4,.5-69,9-136.5,30.6-271,117.5-.6.5-1.2,1-1.8,1.5-13,10.9-25.2,22.4-37.2,34.4-.8.8-1.6,1.6-2.4,2.4-4.7,4.8-9.2,9.6-13.6,14.7-1,1.1-1.9,2.2-2.9,3.4-7,8-13.6,16.2-20.1,24.6-.5.7-1.1,1.4-1.6,2.1-20.4,26.9-37.2,55.7-52.4,85.9-.4.8-.9,1.7-1.3,2.6-37.4,74.5-52.4,158.7-54.7,241.4,0,.9,0,1.8,0,2.7-1.6,67.5,8.5,136.3,30.1,200.3q.5,1.6,1.1,3.2c20.8,61.5,53.6,120.5,97.7,168.4,1.2,1.3,2.4,2.6,3.5,4,5.7,6.6,11.8,12.8,18,18.9,1.9,1.9,3.8,3.9,5.8,5.8,6.3,6.3,12.6,12.4,19.6,17.9,2.2,1.8,4.3,3.6,6.4,5.6,6.9,6.2,14.4,11.7,21.9,17.2.7.5,1.5,1.1,2.2,1.7,43.3,32.2,91.9,56.7,142.8,74.3,1,.4,2.1.7,3.2,1.1,42.1,14.7,86.5,23.9,130.8,28.7,2,.2,4.1.4,6.1.7,46.8,5.2,96.1,4.8,142.9-.5.8,0,1.6-.2,2.4-.3,46.4-5.2,92.1-14.5,136.6-28.7,1.2-.4,2.5-.8,3.7-1.2,53.8-17.2,105.8-41,154.2-70,3.2-1.9,6.4-3.8,9.6-5.7,2.1-1.3,4.2-2.5,6.4-3.8,1-.6,2-1.2,3-1.8q1.4-.8,2.8-1.7c.8-.5,1.6-1,2.4-1.5q2.1-1.4,2.8-4.4-1.1-2.7-2.7-5.6c-.6-1.1-1.2-2.3-1.9-3.4-.7-1.2-1.4-2.5-2-3.7-.7-1.3-1.4-2.6-2.1-3.8-4.6-8.5-9.4-17-14.2-25.4-4.7-8.2-9.1-16.6-13.6-25-6.9-13.1-14.1-26.1-21.5-39-.8-1.4-1.6-2.7-2.4-4.1q-.8-1.4-1.6-2.9c-6.1,2.9-12,6.1-17.8,9.6-9.4,5.6-18.9,10.8-28.5,16-1.8,1-3.5,1.9-5.3,2.9-78.3,42.6-167.6,66-319.4,64.6-.7,0-1.4-.2-2.1-.2-21.2-2.4-42.1-5.7-62.9-10.8-1.1-.3-2.2-.5-3.3-.8-53.9-13.4-106.2-37-148.7-73.2-1-.8-1.9-1.6-2.9-2.4-8.2-6.8-15.8-14.2-23.4-21.7-.5-.5-1-1-1.6-1.5-6.8-6.8-13.2-13.8-19.1-21.4-.6-.7-1.1-1.4-1.7-2.1-24.4-30.6-42.9-65.2-56.3-101.9-.3-.9-.7-1.9-1-2.8-14.2-39.4-19.9-79.6-25-121.2h816q2.4-13.3,4.1-26.6c0-.8.2-1.6.2-2.4.2-1.7.3-3.3.5-5,.2-2.5.5-5,.8-7.5,2-19.4,2.6-38.6,2.6-58.2,0-1.2,0-2.4,0-3.7,0-18.6-.3-37.1-2.2-55.7,0-.6-.1-1.3-.2-2-6.5-66.1-21.9-131.7-52.7-190.9-1.2-2.4-2.4-4.7-3.6-7.1-6.2-12.1-13-23.7-20.5-35-.5-.7-.9-1.4-1.4-2.2-10.6-15.9-22.3-31.1-35.2-45.2-1.3-1.4-2.6-2.9-3.8-4.3-4.9-5.6-10-10.9-15.3-16.2-.9-.9-1.8-1.8-2.7-2.7-5.1-5.1-10.3-10-16-14.4-2.4-1.9-4.7-3.8-7-5.8-65.1-56.5-151.6-85.6-235.8-96.4-1.2-.2-2.3-.3-3.5-.5-23.5-2.8-47.1-3.7-70.8-3.6-1.4,0-2.7,0-4.1,0-20.6,0-40.9.6-61.3,3.3Z"/>
  <path class="st0" d="M995.7,1160.8c1,0,1.9,0,2.9,0,70.6,0,139.2,20.5,190.8,70.3.6.5,1.1,1.1,1.7,1.6,7.3,7.1,14.1,14.3,20.3,22.4q.6.8,1.2,1.6c11.8,15.3,22.3,32,30.8,49.4.4.8.8,1.6,1.2,2.5,9,18.9,15.6,38.6,21.8,58.5q.5,1.6,1,3.2c15.8,51.6,20.1,107.1,21,160.8,0,.9,0,1.9,0,2.9,2.2,100.6-18.3,208.8-107.4,329.5-9.4,9.8-18.8,19.4-29.6,27.7-1.2,1-2.5,2-3.7,3-58.5,46.4-134.8,66.3-208.8,59.3-77.7-9-153.4-44-214.7-91.9-1.8-1.4-3.5-2.7-5.3-4.1-8.8-6.8-17.3-13.8-25.5-21.3q-.8-.5-1.6-1.1c-2.3-3.1-1.9-6.6-1.8-10.4,0-.9,0-1.7,0-2.6,0-3,0-5.9,0-8.9,0-2.1,0-4.3,0-6.4,0-5.9,0-11.7,0-17.6,0-6.3,0-12.7,0-19,0-14.6-.1-29.1-.1-43.7,0-5,0-10.1,0-15.1,0-26.8-.1-53.6-.2-80.4,0-6.2,0-12.4,0-18.6,0-.8,0-1.5,0-2.3,0-25-.1-50-.2-75-.1-25.7-.2-51.4-.2-77.1,0-3.6,0-7.3,0-10.9,0-.7,0-1.4,0-2.2,0-11.5,0-23-.1-34.5,0-11.6,0-23.1,0-34.7,0-6.3,0-12.5,0-18.8,0-5.7,0-11.5,0-17.2,0-2.1,0-4.1,0-6.2-.2-9.7-.2-17.2,6.7-24.5,2.9-2.8,5.9-5.3,9.1-7.7,1.5-1.3,3-2.6,4.4-3.9.6-.5,1.2-1,1.8-1.6,1.8-1.6,3.5-3.3,5.2-5,2.9-2.9,5.9-5.7,9-8.4,2-1.7,3.9-3.4,5.8-5.1,7.7-6.8,15.6-13.3,23.8-19.6,2-1.5,4-3.1,5.9-4.6,59.7-46.2,128.3-81.3,203.9-90.8.8-.1,1.6-.2,2.5-.3,9.6-1,19.2-.9,28.8-.9Z"/>
  <path class="st0" d="M2472.4,1215q.9.7,1.8,1.5c14,11.4,27.3,24.2,38.2,38.5.9,1.2,1.8,2.3,2.7,3.5,41.2,53,60.6,119.3,68.6,185.1,0,.7.2,1.3.2,2,1.1,9.5,1.8,18.9,2.4,28.4h-664q4.7-28.3,7.2-38.7c.3-1.2.6-2.5.9-3.8,10.3-42.3,26.8-82.7,49.9-119.5.7-1.1,1.4-2.2,2.1-3.4,9.5-14.7,20.2-28.6,31.9-41.6.4-.5.9-1,1.4-1.5,9.9-11.1,20.2-22.1,32-31.3,2.8-2.2,5.6-4.6,8.3-6.9,42.3-35.2,95.4-58.2,149.4-68.2q1.6-.3,3.2-.6c88.2-16,190.5-2.7,263.8,56.6Z"/>
</svg>