<svg xmlns="http://www.w3.org/2000/svg" version="1.1" xmlns:xlink="http://www.w3.org/1999/xlink" xmlns:svgjs="http://svgjs.dev/svgjs" width="28.27" height="27.84"><svg id="SvgjsSvg1114" data-name="Layer 1" xmlns="http://www.w3.org/2000/svg" width="28.27" height="27.84" viewBox="0 0 28.27 27.84">
  <path d="M16.24,17.58c-.3,0-.57-.08-.82-.23-.25-.15-.45-.35-.61-.61s-.23-.53-.23-.82v-3.65c0-.3.08-.58.23-.83s.35-.45.61-.6c.25-.15.53-.23.82-.23h3.76c.3,0,.58.07.83.22s.45.35.6.6c.15.25.22.53.22.83v2.62h-5.5v.97s.01.07.04.1c.03.03.06.04.1.04h11.98V6.62c0-.98-.2-1.74-.37-2.21-.07-.2-.23-.63-.52-1.12-.59-1.01-1.39-1.81-2.4-2.4-1.01-.59-2.12-.89-3.34-.89H0v21.22c0,1.18.3,2.28.91,3.29.61,1.01,1.42,1.82,2.42,2.42,1.01.61,2.1.91,3.29.91l.02-17.22h5.41c.3,0,.58.08.83.23s.45.35.6.6c.15.25.22.52.22.83v3.65c0,.3-.07.57-.22.82-.15.25-.35.45-.6.61-.25.15-.53.23-.83.23h-3.84v10.26h20.05v-10.26h-12.04Z" style="fill: #43b3e6;"></path>
  <path d="M20.08,12.34s-.01-.07-.04-.1-.06-.04-.1-.04h-3.64s-.07.01-.1.04c-.03.03-.04.06-.04.1v1.14h3.92v-1.14Z" style="fill: #43b3e6;"></path>
  <path d="M12,16.01s.07-.01.1-.04c.03-.03.04-.06.04-.1v-3.53s-.01-.07-.04-.1c-.03-.03-.06-.04-.1-.04h-3.64s-.07.01-.1.04c-.03.03-.04.06-.04.1v3.53s.01.07.04.1c.03.03.06.04.1.04h3.64Z" style="fill: #43b3e6;"></path>
</svg><style>@media (prefers-color-scheme: light) { :root { filter: none; } }
@media (prefers-color-scheme: dark) { :root { filter: none; } }
</style></svg>