<?xml version="1.0" encoding="UTF-8"?>
<svg version="1.1" xmlns="http://www.w3.org/2000/svg" width="4168" height="4168">
<path d="M0 0 C1375.44 0 2750.88 0 4168 0 C4168 1375.44 4168 2750.88 4168 4168 C3486.88 4168 2805.76 4168 1258 4163 C1256.5042486 4162.78811522 1255.00837009 4162.57712459 1253.5123291 4162.36729431 C1250.18273786 4161.8852647 1246.87455708 4161.33977658 1243.5625 4160.75 C1241.77114624 4160.43204468 1241.77114624 4160.43204468 1239.94360352 4160.10766602 C1198.01120893 4152.41524053 1158.22439554 4137.93953642 1120.25 4118.75 C1119.16130615 4118.20811035 1118.0726123 4117.6662207 1116.95092773 4117.10791016 C1109.62615846 4113.29978603 1103.92804449 4108.70819029 1098 4103 C1096.6115793 4101.7831565 1095.21699276 4100.57325716 1093.8125 4099.375 C1068.96808351 4077.54952655 1052.75885873 4047.07264947 1045.1875 4015.125 C1044.99260986 4014.32562012 1044.79771973 4013.52624023 1044.59692383 4012.70263672 C1041.00585922 3996.4486775 1040.69243407 3979.46975085 1040.40234375 3962.890625 C1040.36372565 3961.01616086 1040.32444109 3959.14171035 1040.2845459 3957.26727295 C1040.18074871 3952.29348058 1040.08676618 3947.3195517 1039.9952507 3942.34552002 C1039.91690396 3938.14602271 1039.83315993 3933.94663942 1039.7494669 3929.74724579 C1039.52171233 3918.31419775 1039.30750883 3906.88093421 1039.09960938 3895.44750977 C1039.01312086 3890.69607271 1038.92331185 3885.94470642 1038.83203125 3881.19335938 C1038.47522359 3862.46314695 1038.21076576 3843.73234242 1038 3825 C1037.98928467 3824.04851578 1037.97856934 3823.09703156 1037.9675293 3822.11671448 C1036.71154461 3709.8772015 1036.68241576 3597.65960218 1037.89877987 3485.41967964 C1037.97386518 3478.4907565 1038.04487592 3471.56180452 1038.11328125 3464.6328125 C1038.19297924 3456.60851129 1038.283608 3448.58440995 1038.38577271 3440.56036377 C1038.42067349 3437.80676989 1038.45156425 3435.05318032 1038.47872925 3432.29949951 C1038.51667568 3428.66560798 1038.56680886 3425.03211603 1038.62109375 3421.3984375 C1038.62947266 3420.36412598 1038.63785156 3419.32981445 1038.64648438 3418.26416016 C1038.66316162 3417.33571289 1038.67983887 3416.40726563 1038.69702148 3415.45068359 C1038.70732895 3414.65552338 1038.71763641 3413.86036316 1038.72825623 3413.04110718 C1039 3411 1039 3411 1041 3408 C1044.17189891 3411.34335291 1046.09528998 3413.76818401 1047.24609375 3418.25 C1048.92277757 3423.53734036 1051.85993219 3426.7175701 1055.75 3430.5625 C1056.95442749 3431.79169386 1058.15755102 3433.02216674 1059.359375 3434.25390625 C1059.92967941 3434.83226227 1060.49998383 3435.41061829 1061.08757019 3436.00650024 C1062.88615633 3437.88133037 1064.58802799 3439.80471196 1066.27856445 3441.77685547 C1069.76562549 3445.78131771 1073.42381676 3449.56896697 1077.18359375 3453.31640625 C1077.84279312 3453.97656235 1078.50199249 3454.63671844 1079.1811676 3455.31687927 C1080.56396835 3456.70035506 1081.94801076 3458.08259083 1083.33325195 3459.46362305 C1085.43230343 3461.55731669 1087.5259594 3463.65629874 1089.61914062 3465.75585938 C1090.97363786 3467.10969571 1092.32844531 3468.46322175 1093.68359375 3469.81640625 C1094.29843124 3470.43326797 1094.91326874 3471.0501297 1095.54673767 3471.6856842 C1099.32414774 3475.4431644 1103.2207652 3479.01273245 1107.25506592 3482.49317932 C1109.47846488 3484.41317364 1111.64440217 3486.3929561 1113.8125 3488.375 C1119.06180977 3493.10576093 1124.49623945 3497.56997052 1130 3502 C1131.13313697 3502.92538408 1132.26593449 3503.85118393 1133.3984375 3504.77734375 C1185.6757602 3547.32568888 1246.09558609 3579.71058607 1311 3598 C1312.51086182 3598.42635742 1312.51086182 3598.42635742 1314.05224609 3598.86132812 C1340.44023081 3606.16565606 1367.73509477 3610.69425505 1395 3613 C1396.08547119 3613.0942627 1397.17094238 3613.18852539 1398.28930664 3613.28564453 C1456.37716001 3617.77091424 1514.59806451 3610.7956494 1571 3597 C1571.97592102 3596.76343689 1571.97592102 3596.76343689 1572.97155762 3596.52209473 C1594.10582979 3591.39322499 1614.64065989 3584.73942988 1635.17437744 3577.62896729 C1637.59478735 3576.79508262 1640.02228765 3575.98264615 1642.44921875 3575.16796875 C1657.46281516 3570.00964817 1671.71684601 3562.87737067 1686 3556 C1686.96679688 3555.53658203 1687.93359375 3555.07316406 1688.9296875 3554.59570312 C1702.62847589 3548.00036658 1715.86099412 3540.64292327 1729 3533 C1730.51086182 3532.12384033 1730.51086182 3532.12384033 1732.05224609 3531.22998047 C1748.18387687 3521.83497182 1763.71412187 3511.71223379 1779 3501 C1779.85239258 3500.40413086 1780.70478516 3499.80826172 1781.58300781 3499.19433594 C1791.83842537 3491.99530541 1801.66339089 3484.37896579 1811.31201172 3476.38818359 C1813.5363094 3474.55894486 1815.79819937 3472.7793598 1818.0625 3471 C1835.39184874 3457.14811255 1851.3094067 3441.7752104 1867 3426.125 C1867.59067261 3425.53700623 1868.18134521 3424.94901245 1868.78991699 3424.34320068 C1875.08106038 3418.07370565 1881.2748919 3411.79880682 1887 3405 C1887.94926698 3403.90516161 1888.89975614 3402.81138149 1889.8515625 3401.71875 C1945.09550514 3337.75207958 1988.28288841 3263.72970195 2016.30462646 3183.97283936 C2017.00879928 3181.97503562 2017.71958159 3179.97969423 2018.43212891 3177.98486328 C2050.18875257 3088.95263904 2069.39920234 2995.75426162 2077 2889 C2077.04130035 2888.25234375 2077.08260071 2887.5046875 2077.12515259 2886.734375 C2078.08002493 2869.16009011 2078.20206046 2851.59466125 2078.1875 2834 C2078.18723312 2833.27511761 2078.18696625 2832.55023521 2078.18669128 2831.80338669 C2078.17578732 2808.15240988 2077.85094878 2784.58913616 2076 2761 C2075.93683594 2760.18017639 2075.87367188 2759.36035278 2075.80859375 2758.51568604 C2068.89296686 2669.37317068 2052.77394616 2579.6465738 1918 2312 C1917.25363281 2311.07058594 1916.50726562 2310.14117188 1915.73828125 2309.18359375 C1906.35761277 2297.61354124 1896.59377358 2286.42964589 1886.43066406 2275.54394531 C1884.19914463 2273.13573219 1882.01136461 2270.68801605 1879.8125 2268.25 C1875.10029542 2263.10629994 1870.23618574 2258.12881038 1865.3125 2253.1875 C1864.26122925 2252.12934082 1864.26122925 2252.12934082 1863.1887207 2251.04980469 C1859.21238225 2247.08515998 1855.13425221 2243.30363441 1850.88208008 2239.63696289 C1848.08406026 2237.20334985 1845.3918064 2234.6615677 1842.6875 2232.125 C1837.86417577 2227.63810543 1832.91844022 2223.37710987 1827.77734375 2219.25390625 C1825.35212269 2217.2857592 1822.98220324 2215.26697843 1820.62231445 2213.22143555 C1811.46284687 2205.31496134 1801.7402451 2198.16871388 1792 2191 C1791.25089355 2190.44554199 1790.50178711 2189.89108398 1789.72998047 2189.31982422 C1784.53356184 2185.47889144 1779.2873407 2181.71469577 1774 2178 C1773.09797852 2177.36416992 1772.19595703 2176.72833984 1771.26660156 2176.07324219 C1738.88973087 2153.41052911 1702.28878605 2138.59619685 1665 2126 C1663.99195313 2125.65275879 1662.98390625 2125.30551758 1661.9453125 2124.94775391 C1627.68021617 2113.18317933 1592.00757632 2105.50443573 1556.125 2100.75 C1554.41896606 2100.52316528 1554.41896606 2100.52316528 1552.6784668 2100.29174805 C1530.70143545 2097.5636817 1508.75785182 2096.62057244 1486.625 2096.6875 C1485.36307831 2096.68932281 1484.10115662 2096.69114563 1482.80099487 2096.69302368 C1462.06061427 2096.74321402 1441.5869466 2097.46211496 1421 2100 C1419.9257074 2100.1308197 1419.9257074 2100.1308197 1418.82971191 2100.26428223 C1343.37481753 2109.52308711 1269.67908553 2131.09339859 1204 2170 C1202.23327169 2171.03159049 1200.46634642 2172.06284376 1198.69921875 2173.09375 C1188.14694897 2179.29289784 1177.94116371 2185.86334955 1168 2193 C1166.84902832 2193.82419434 1166.84902832 2193.82419434 1165.67480469 2194.66503906 C1156.45956801 2201.29068695 1147.46017159 2208.06263419 1138.890625 2215.5078125 C1136.22581801 2217.80530826 1133.50586283 2220.00096212 1130.75 2222.1875 C1119.11940716 2231.68357652 1108.5034104 2242.41518269 1097.875 2253 C1097.09382813 2253.77649902 1096.31265625 2254.55299805 1095.5078125 2255.35302734 C1090.7994851 2260.07454618 1086.34291021 2264.94261522 1082 2270 C1080.97839859 2271.15657234 1079.95500658 2272.3115659 1078.9296875 2273.46484375 C1071.37290375 2282.02928029 1064.32018473 2290.89003982 1057.47509766 2300.03125 C1056.09779718 2301.86947427 1054.7127295 2303.7014863 1053.32421875 2305.53125 C1048.98185748 2311.26272996 1048.98185748 2311.26272996 1044.94140625 2317.20703125 C1043 2320 1043 2320 1040 2322 C1039.26264817 2318.68850476 1038.8694899 2315.61043202 1038.84228516 2312.22021484 C1038.83189713 2311.27490906 1038.82150909 2310.32960327 1038.81080627 2309.35565186 C1038.80363083 2308.31789612 1038.79645538 2307.28014038 1038.7890625 2306.2109375 C1038.76290203 2303.87060039 1038.73626262 2301.53026859 1038.70922852 2299.18994141 C1038.69594513 2297.9254718 1038.68266174 2296.6610022 1038.66897583 2295.35821533 C1038.34304248 2265.83602752 1037.56168448 2236.3302671 1036.65990448 2206.82062531 C1036.56439916 2203.68730725 1036.47006881 2200.55395586 1036.3760376 2197.42059326 C1035.4583545 2166.93798721 1034.29840031 2136.46867822 1033 2106 C1032.02529251 2106.28824646 1031.05058502 2106.57649292 1030.04634094 2106.87347412 C947.11614905 2131.37138684 863.84975135 2140.54136071 510 2135 C509.67 2150.84 509.34 2166.68 509 2183 C512.568125 2183.226875 516.13625 2183.45375 519.8125 2183.6875 C546.4955247 2185.63515342 572.94614404 2189.9734803 599 2196 C600.08555176 2196.24943359 601.17110352 2196.49886719 602.28955078 2196.75585938 C642.3596155 2206.13588355 693.87909848 2219.14108937 725 2247 C725.56154785 2247.49290527 726.1230957 2247.98581055 726.70166016 2248.49365234 C757.49956544 2275.61081109 778.89882311 2313.62395514 782.16303158 2355.07003307 C782.30542332 2357.5146429 782.418333 2359.95885498 782.51977539 2362.40551758 C782.56101815 2363.38763875 782.60226091 2364.36975992 782.64475346 2365.38164234 C783.26245267 2381.43800886 783.41304915 2397.50992594 783.64149499 2413.57543254 C783.69895127 2417.58286866 783.75873456 2421.59026894 783.81844229 2425.59767205 C784.01502335 2438.80348677 784.20276686 2452.0094209 784.3885622 2465.21539116 C784.43765724 2468.69865613 784.48704277 2472.18191686 784.53652191 2475.66517639 C786.14316486 2588.81441586 787.42434177 2701.96749701 788.60900402 2911.88652229 C788.62909985 2916.3476335 788.64968867 2920.80874234 788.67039728 2925.26985073 C788.92181348 2980.29027537 789.03432201 3035.31052895 789.03440694 3090.33149348 C789.03442407 3092.68620376 789.03450852 3095.04091403 789.03460352 3097.39562431 C789.037196 3179.01775605 788.84432942 3260.63935528 788.6368861 3342.26117855 C788.60226656 3355.88523964 788.56830384 3369.5093023 788.53457451 3383.13336563 C788.44741079 3418.3157042 788.35975183 3453.49804141 788.26950932 3488.68037224 C788.26666881 3489.78799525 788.26382831 3490.89561827 788.26090173 3492.03680562 C788.24652048 3497.64414266 788.23213375 3503.2514797 788.21774632 3508.85881673 C788.21489164 3509.97148266 788.21203696 3511.08414859 788.20909577 3512.23053167 C788.20332311 3514.48053324 788.19754987 3516.7305348 788.19177604 3518.98053637 C788.10144904 3554.18949109 788.0144823 3589.39845283 787.92993164 3624.60742188 C787.83391646 3664.59016731 787.73500271 3704.57290423 787.63215441 3744.55563271 C787.62117326 3748.82868518 787.61020333 3753.10173767 787.59924126 3757.37479019 C787.59519294 3758.95188722 787.59519294 3758.95188722 787.59106284 3760.5608448 C787.54822632 3777.27441581 787.50806405 3793.98799215 787.46891735 3810.70157216 C787.42950823 3827.49543922 787.38687659 3844.28929588 787.34116179 3861.08314697 C787.31661743 3870.12872388 787.29332267 3879.17429908 787.2739563 3888.21988869 C787.22640408 3910.14688795 787.15053334 3932.07344377 787 3954 C786.99499641 3954.74402576 786.98999282 3955.48805152 786.9848376 3956.25462351 C786.91991123 3965.81233609 786.83426817 3975.36953714 786.71676075 3984.92675234 C786.68422099 3987.59862671 786.65868024 3990.2702724 786.63679964 3992.94228731 C786.23938094 4039.17196769 774.62066361 4080.80676537 741 4114 C731.92158976 4122.67679024 721.71853208 4129.5197921 711 4136 C710.08444336 4136.56678467 710.08444336 4136.56678467 709.15039062 4137.14501953 C673.83740411 4158.76981454 615.37678369 4167.92927046 0 4168 C0 2792.56 0 1417.12 0 0 Z M3027 2097 C3026.32888184 2097.06316406 3025.65776367 2097.12632812 3024.96630859 2097.19140625 C2947.63206987 2104.50365872 2872.99127896 2125.37383244 2803 2159 C2801.67186279 2159.63518555 2801.67186279 2159.63518555 2800.31689453 2160.28320312 C2772.25883403 2173.7750196 2744.96487012 2189.7519499 2719.62402344 2207.84326172 C2718.08361555 2208.9404434 2716.5304133 2210.01959698 2714.9765625 2211.09765625 C2708.15747834 2215.90157688 2702.10251063 2221.32671795 2696 2227 C2694.65165509 2228.1941062 2693.29802273 2229.38228751 2691.9375 2230.5625 C2678.1691351 2242.55787626 2664.86957475 2255.04700748 2651.9375 2267.9375 C2651.1525415 2268.71786621 2650.36758301 2269.49823242 2649.55883789 2270.30224609 C2645.43510811 2274.43700779 2641.4827056 2278.65650482 2637.6730957 2283.08178711 C2634.9148204 2286.24416403 2632.01107118 2289.26723921 2629.125 2292.3125 C2624.26646836 2297.47929621 2619.61932067 2302.7361638 2615.19140625 2308.28125 C2613.21269799 2310.736118 2611.1816974 2313.1362074 2609.12451172 2315.52539062 C2602.66490897 2323.04285371 2596.62275715 2330.84736272 2590.67382812 2338.77294922 C2589.58015313 2340.22809847 2588.48265315 2341.68038287 2587.38085938 2343.12939453 C2565.86793744 2371.42526011 2546.77973182 2401.67913925 2530 2433 C2529.54061035 2433.85706543 2529.0812207 2434.71413086 2528.60791016 2435.59716797 C2524.99891118 2442.36118106 2521.47374763 2449.1656087 2518 2456 C2517.52336914 2456.93569824 2517.04673828 2457.87139648 2516.55566406 2458.83544922 C2473.78707957 2543.50667912 2452.12458459 2637.41988661 2463 3124 C2463.16502014 3124.73847168 2463.33004028 3125.47694336 2463.50006104 3126.23779297 C2473.80603592 3172.18803265 2490.72499438 3216.56981792 2511 3259 C2511.47079987 3259.98543793 2511.47079987 3259.98543793 2511.95111084 3260.99078369 C2520.04434094 3277.88374202 2528.71808817 3294.33047019 2538.41259766 3310.37207031 C2539.88576292 3312.81088158 2541.34160209 3315.25911421 2542.79296875 3317.7109375 C2557.16243156 3341.81123492 2573.67763566 3364.6640288 2591.56738281 3386.26318359 C2593.62882132 3388.76234405 2595.65416707 3391.29045371 2597.6875 3393.8125 C2601.45604698 3398.41773356 2605.40788304 3402.82873534 2609.4453125 3407.19921875 C2611.39163132 3409.333027 2613.28612563 3411.48885447 2615.16967773 3413.67675781 C2618.89951229 3417.94339908 2622.82780766 3421.97251978 2626.83984375 3425.97265625 C2627.56563126 3426.69940048 2628.29141876 3427.42614471 2629.03919983 3428.1749115 C2630.56323556 3429.69962296 2632.08851569 3431.2230915 2633.61499023 3432.74536133 C2635.93132463 3435.05633891 2638.24227078 3437.37260771 2640.55273438 3439.68945312 C2642.04395034 3441.1800082 2643.53547653 3442.670253 2645.02734375 3444.16015625 C2645.70780258 3444.84263931 2646.38826141 3445.52512238 2647.08934021 3446.22828674 C2651.56610405 3450.68358851 2656.20485941 3454.89070279 2661 3459 C2662.0942196 3459.9499802 2663.18805203 3460.90040682 2664.28125 3461.8515625 C2692.32655655 3486.07309824 2722.18649873 3507.96643004 2754 3527 C2754.89138672 3527.5377002 2755.78277344 3528.07540039 2756.70117188 3528.62939453 C2774.73963791 3539.4825596 2793.26375768 3549.41283412 2812 3559 C2813.64766357 3559.84618896 2813.64766357 3559.84618896 2815.32861328 3560.70947266 C2832.53812139 3569.42416939 2850.48835582 3574.8689976 2869 3580 C2870.50343985 3580.42049467 2872.0068577 3580.84106805 2873.51025391 3581.26171875 C2925.60716319 3595.77223275 2978.18941273 3604.95219326 3032 3610 C3032.7284613 3610.07003235 3033.45692261 3610.1400647 3034.2074585 3610.21221924 C3079.59220441 3614.55618972 3126.6774563 3613.3929235 3172 3609 C3172.75768677 3608.92738953 3173.51537354 3608.85477905 3174.29602051 3608.77996826 C3265.25322701 3599.97614692 3357.06457724 3576.8353788 3497 3501 C3497.76006348 3500.4548877 3498.52012695 3499.90977539 3499.30322266 3499.34814453 C3508.51916627 3492.72308781 3517.52165054 3485.9551265 3526.08984375 3478.5078125 C3528.86211536 3476.11882139 3531.69644842 3473.83740296 3534.5625 3471.5625 C3539.25860915 3467.74947843 3543.4990128 3463.62115256 3547.72412109 3459.30541992 C3550.44883377 3456.52685389 3553.2098516 3453.88000579 3556.1875 3451.375 C3559.95752292 3448.15348451 3563.18613771 3444.5767435 3566.45703125 3440.85546875 C3568.30304283 3438.78260475 3570.16501272 3436.75103743 3572.07421875 3434.73828125 C3579.05701036 3427.37121159 3585.5117728 3419.78985248 3591.67041016 3411.72363281 C3592.97250251 3410.03564677 3594.29865912 3408.37050793 3595.63671875 3406.7109375 C3639.48271917 3353.78361022 3639.48271917 3353.78361022 3661.8984375 3292.0546875 C3660.57736558 3289.03345345 3658.66827977 3286.70971668 3656.625 3284.125 C3656.18019287 3283.55910156 3655.73538574 3282.99320313 3655.27709961 3282.41015625 C3654.33335495 3281.2104948 3653.38691627 3280.01294847 3652.43798828 3278.81738281 C3651.04005685 3277.05062532 3649.65652333 3275.27360702 3648.27734375 3273.4921875 C3642.89941019 3266.56233043 3637.35601746 3259.80307429 3631.66015625 3253.1328125 C3627.69682352 3248.48494375 3623.84918793 3243.7425797 3620 3239 C3617.92297912 3242.11553132 3616.35174099 3245.32805424 3614.76171875 3248.703125 C3614.1069865 3250.07887097 3613.4516896 3251.45434832 3612.79589844 3252.82958984 C3612.452323 3253.55088074 3612.10874756 3254.27217163 3611.75476074 3255.01531982 C3593.13818691 3293.99556789 3570.23581274 3330.25521251 3542 3363 C3541.38511719 3363.71671875 3540.77023437 3364.4334375 3540.13671875 3365.171875 C3538.44133265 3367.13026849 3536.72590996 3369.0684497 3535 3371 C3534.24976562 3371.84304688 3533.49953125 3372.68609375 3532.7265625 3373.5546875 C3527.08495703 3379.80619626 3521.25621593 3385.8474038 3515.3125 3391.8125 C3514.61205566 3392.51753662 3513.91161133 3393.22257324 3513.18994141 3393.94897461 C3508.62259409 3398.50289802 3503.89597773 3402.80335499 3499 3407 C3498.03578125 3407.845625 3497.0715625 3408.69125 3496.078125 3409.5625 C3466.33121081 3435.20072439 3432.97500877 3455.39043816 3398 3473 C3396.75863281 3473.63566895 3396.75863281 3473.63566895 3395.4921875 3474.28417969 C3379.26829894 3482.57277781 3362.09929197 3488.78516616 3345 3495 C3343.32478271 3495.61004883 3343.32478271 3495.61004883 3341.61572266 3496.23242188 C3291.71962032 3514.07005986 3233.37008998 3522.02338272 3180.5390625 3522.203125 C3179.87472576 3522.20595238 3179.21038902 3522.20877975 3178.52592087 3522.21169281 C3174.99416485 3522.22655382 3171.46244814 3522.23585956 3167.93066406 3522.24023438 C3165.09231354 3522.24456884 3162.25427564 3522.25828152 3159.41601562 3522.28125 C3132.88542579 3522.49117298 3106.60136652 3521.01853928 3080.4375 3516.3125 C3079.37633469 3516.12550034 3079.37633469 3516.12550034 3078.29373169 3515.9347229 C3039.34059066 3509.03355685 3002.02454263 3496.4339698 2967 3478 C2966.25250488 3477.61295898 2965.50500977 3477.22591797 2964.73486328 3476.82714844 C2945.9589862 3467.06476768 2928.48931168 3455.25115995 2912 3442 C2911.07445313 3441.26652344 2910.14890625 3440.53304687 2909.1953125 3439.77734375 C2902.74728158 3434.598826 2896.63264088 3429.10156408 2890.58544922 3423.46777344 C2888.93319954 3421.93815763 2887.26720623 3420.42476578 2885.59765625 3418.9140625 C2880.41672366 3414.21272273 2875.36171305 3409.56137183 2870.8671875 3404.18359375 C2868.85757306 3401.83343795 2866.76448367 3399.58052818 2864.65136719 3397.32373047 C2859.13405228 3391.42491715 2853.90283726 3385.42612965 2849 3379 C2848.48099121 3378.32646484 2847.96198242 3377.65292969 2847.42724609 3376.95898438 C2806.26844939 3323.45140631 2777.42136505 3263.41028427 2755 3200 C2754.64341309 3199.0104834 2754.28682617 3198.0209668 2753.91943359 3197.00146484 C2719.118659 3099.62377328 2708.68051333 2988.14488774 2702.3125 2885.5 C2702.25147095 2884.52039307 2702.19044189 2883.54078613 2702.12756348 2882.53149414 C2698.9823219 2831.30280369 2700 2780.48406716 2700 2729 C3017.79 2729 3335.58 2729 3663 2729 C3663 2666.63037912 3659.02389923 2607.41671844 3644 2547 C3643.75923737 2546.02987976 3643.75923737 2546.02987976 3643.51361084 2545.04016113 C3632.56484334 2501.10672239 3616.61092561 2458.7798195 3597 2418 C3596.51708496 2416.9903418 3596.03416992 2415.98068359 3595.53662109 2414.94042969 C3584.86440381 2392.7407924 3572.39269363 2371.65687428 3559 2351 C3558.30648437 2349.93007812 3557.61296875 2348.86015625 3556.8984375 2347.7578125 C3538.98847269 2320.56119927 3519.16155249 2294.55260253 3497.23046875 2270.4765625 C3496.03898463 2269.15361866 3494.85289993 2267.82500787 3493.70727539 2266.4621582 C3487.88405239 2259.59818109 3481.46406462 2253.31364974 3475.09399414 2246.96362305 C3473.0673702 2244.94235732 3471.04614453 2242.91580426 3469.02539062 2240.88867188 C3462.85502273 2234.71478682 3456.69889338 2228.6061174 3450 2223 C3448.86946732 2222.01618879 3447.74054147 2221.03052788 3446.61328125 2220.04296875 C3439.54363424 2213.90952369 3432.35800811 2208.00201825 3424.86230469 2202.39404297 C3423.54008613 2201.40428577 3422.22071149 2200.41072431 3420.90332031 2199.41455078 C3378.42567011 2167.32012035 3331.2646979 2142.48699525 3281 2125 C3279.99888184 2124.6498584 3278.99776367 2124.2997168 3277.96630859 2123.93896484 C3231.76759947 2107.9744134 3182.70319745 2099.19909048 3134 2096 C3132.69957764 2095.91242432 3131.39915527 2095.82484863 3130.05932617 2095.73461914 C3115.98280164 2094.85473267 3101.91250819 2094.79977042 3087.8125 2094.8125 C3086.57400299 2094.81310425 3085.33550598 2094.8137085 3084.05947876 2094.81433105 C3064.95616112 2094.83959245 3046.02557924 2095.17290888 3027 2097 Z " fill="#00B6FD" transform="translate(0,0)"/>
<path d="M0 0 C12.43466476 10.70840769 24.26538351 21.94243465 35.125 34.25 C35.61419922 34.79978516 36.10339844 35.34957031 36.60742188 35.91601562 C44.64495413 44.97783678 52.01534815 54.44796152 59.125 64.25 C59.67414062 64.99991211 60.22328125 65.74982422 60.7890625 66.52246094 C100.22983381 120.57342664 127.52469133 185.24748979 149.125 248.25 C149.36885437 248.96093811 149.61270874 249.67187622 149.86395264 250.40435791 C175.73385697 326.07420697 188.58908932 403.90383597 166.125 912.25 C165.93508484 913.07413391 165.74516968 913.89826782 165.54949951 914.74737549 C156.71904499 952.88700377 144.48129725 989.67173137 128.125 1025.25 C127.68043457 1026.22420898 127.23586914 1027.19841797 126.77783203 1028.20214844 C113.00413622 1058.24561355 96.00117119 1086.84135548 76.125 1113.25 C75.58101562 1113.97799805 75.03703125 1114.70599609 74.4765625 1115.45605469 C67.76294254 1124.42724755 60.84309794 1133.16510281 53.51074219 1141.63769531 C52.05818891 1143.32773439 50.6253756 1145.0330877 49.1953125 1146.7421875 C43.8089998 1153.15225051 38.26805691 1159.26542206 32.2824707 1165.12207031 C29.51130603 1167.83769235 26.88149248 1170.60131501 24.375 1173.5625 C21.5673852 1176.85839563 18.50999381 1179.62264863 15.20703125 1182.4140625 C12.995264 1184.36440135 10.97898018 1186.43518062 8.9375 1188.5625 C-2.14836782 1199.70473664 -15.64297765 1207.92451016 -28.875 1216.25 C-29.52694336 1216.6610498 -30.17888672 1217.07209961 -30.85058594 1217.49560547 C-35.13674893 1220.17882266 -39.48344418 1222.743377 -43.875 1225.25 C-44.70354492 1225.72373047 -45.53208984 1226.19746094 -46.38574219 1226.68554688 C-128.06769868 1273.00216575 -221.65154305 1287.704229 -316.375 1272.25 C-317.13689636 1272.12461853 -317.89879272 1271.99923706 -318.68377686 1271.87005615 C-331.35084561 1269.75583391 -342.58904281 1266.65461817 -354.25 1261.1875 C-355.30018311 1260.69854248 -356.35036621 1260.20958496 -357.43237305 1259.70581055 C-360.58476776 1258.23059188 -363.73061378 1256.74219944 -366.875 1255.25 C-367.7397998 1254.84362305 -368.60459961 1254.43724609 -369.49560547 1254.01855469 C-396.26074807 1241.37841724 -421.49285548 1225.36248442 -444.875 1207.25 C-445.71538818 1206.60466309 -445.71538818 1206.60466309 -446.57275391 1205.94628906 C-453.48830059 1200.63186022 -460.2127644 1195.21346384 -466.63671875 1189.3046875 C-468.74539527 1187.36897397 -470.89286328 1185.49180024 -473.0625 1183.625 C-476.21991776 1180.87886913 -479.16607479 1177.98365323 -482.09375 1174.99609375 C-483.95233563 1173.17419073 -485.89035989 1171.49562748 -487.875 1169.8125 C-491.31123197 1166.85297074 -494.24041449 1163.66326348 -497.16796875 1160.20703125 C-498.78760807 1158.35019075 -500.47623291 1156.64602508 -502.25 1154.9375 C-505.95988557 1151.28532376 -509.17990824 1147.30157538 -512.4375 1143.24609375 C-514.50284754 1140.7074374 -516.61867986 1138.22643085 -518.76635742 1135.75756836 C-535.24776924 1116.71139417 -548.82387947 1095.12132034 -561.56347656 1073.46044922 C-562.73749452 1071.48175253 -563.93481377 1069.52096198 -565.1484375 1067.56640625 C-565.78007813 1066.53386719 -566.41171875 1065.50132813 -567.0625 1064.4375 C-567.85720703 1063.15939453 -567.85720703 1063.15939453 -568.66796875 1061.85546875 C-571.52573658 1055.68675955 -571.0373563 1048.56494534 -571.07139587 1041.89735413 C-571.08040308 1040.86780942 -571.08941029 1039.8382647 -571.09869045 1038.77752167 C-571.1275774 1035.33615713 -571.14964054 1031.89478416 -571.17163086 1028.45336914 C-571.19072815 1025.98798529 -571.21020066 1023.52260433 -571.23002052 1021.05722618 C-571.27707374 1015.05067206 -571.31949151 1009.04410143 -571.35961042 1003.03749831 C-571.39267992 998.10037924 -571.42781009 993.16327848 -571.46421623 988.22618294 C-571.89765028 929.33828585 -572.17328876 870.44975368 -572.39240968 811.56068957 C-572.42699005 802.32438574 -572.4641324 793.08809469 -572.50268555 783.85180664 C-572.98905436 667.12915231 -572.97337137 550.41176013 -572.4861601 433.68914407 C-572.44782396 424.4534963 -572.41205283 415.21784108 -572.37768555 405.98217773 C-572.24774476 371.15019731 -572.0941093 336.31841127 -571.90803207 301.48668373 C-571.88145782 296.49939359 -571.85577122 291.51209927 -571.83034515 286.52480316 C-571.7469943 270.24201046 -571.65616495 253.95929759 -571.54765624 237.67665118 C-571.50079205 230.62827354 -571.45675901 223.5799099 -571.42114449 216.53146553 C-571.38800476 209.98320717 -571.34483092 203.4350692 -571.29478574 196.88691449 C-571.2779926 194.48637392 -571.26449042 192.08580771 -571.25453067 189.68522906 C-571.24034052 186.39991544 -571.21412036 183.11490633 -571.18492126 179.82969666 C-571.18364355 178.88237767 -571.18236584 177.93505869 -571.18104941 176.95903307 C-571.0944362 169.51623764 -570.17115536 162.374079 -566.94921875 155.5859375 C-566.38279663 154.38578003 -566.38279663 154.38578003 -565.80493164 153.16137695 C-565.3949292 152.32437256 -564.98492676 151.48736816 -564.5625 150.625 C-564.12736084 149.72547607 -563.69222168 148.82595215 -563.24389648 147.89916992 C-546.30523279 113.4367265 -525.03000419 81.23737112 -499.875 52.25 C-499.27558594 51.55003906 -498.67617187 50.85007812 -498.05859375 50.12890625 C-488.45235015 38.9949227 -478.48143476 27.92669355 -467.30859375 18.34375 C-465.38944298 16.69260263 -463.49017341 15.02503193 -461.59765625 13.34375 C-442.92296571 -3.17077102 -422.50584535 -17.37096194 -400.875 -29.75 C-400.08706055 -30.20342773 -399.29912109 -30.65685547 -398.48730469 -31.12402344 C-357.69416318 -54.44106538 -313.12374396 -68.80157202 -267.25 -78.06591797 C-264.43179269 -78.63714315 -261.62226048 -79.23681339 -258.8125 -79.84765625 C-170.96482171 -97.91025468 -66.08792446 -56.16727665 0 0 Z " fill="#00B7FD" transform="translate(1609.875,2260.75)"/>
<path d="M0 0 C0.87953339 -0.00705963 1.75906677 -0.01411926 2.66525269 -0.02139282 C38.97008916 -0.24655584 38.97008916 -0.24655584 56.5234375 3.203125 C57.51956055 3.38584961 58.51568359 3.56857422 59.54199219 3.75683594 C87.1965284 8.90875168 114.14030447 18.13000346 139.5234375 30.203125 C140.49539063 30.66299805 141.46734375 31.12287109 142.46875 31.59667969 C181.91293175 50.41420438 181.91293175 50.41420438 195.5234375 64.203125 C197.22403197 65.73260702 198.93257289 67.25329388 200.6484375 68.765625 C207.75253928 75.16932238 214.37682598 81.87535492 220.5234375 89.203125 C220.97847656 89.74437012 221.43351562 90.28561523 221.90234375 90.84326172 C234.5669156 105.97353825 245.69238978 121.65646809 255.25927734 138.92578125 C256.43181673 141.03807315 257.62622596 143.13645958 258.82421875 145.234375 C298.74860062 216.44489025 308.54589631 310.76342099 312.05932617 410.39453125 C312.37376651 420.67811472 313.15567811 430.89140529 314.0234375 441.140625 C315.4619341 458.16326369 316.24664829 475.1219888 316.5234375 492.203125 C316.54833252 493.64220215 316.54833252 493.64220215 316.57373047 495.11035156 C316.7049816 503.84422286 316.50368213 512.52639258 316.015625 521.24609375 C315.96849365 522.11310913 315.9213623 522.98012451 315.87280273 523.87341309 C315.75788438 525.98340131 315.64088171 528.09327586 315.5234375 530.203125 C241.61014269 530.89967066 167.70364739 531.46323578 93.786479 531.21081543 C91.42130504 531.20277793 89.05613063 531.19488316 86.69095612 531.18701172 C-9.11814254 530.86708499 -104.92332814 530.33415694 -200.7265625 529.203125 C-201.6238441 529.19256608 -202.5211257 529.18200716 -203.44559765 529.17112827 C-240.09971437 528.73968115 -276.75314639 528.26250503 -313.40560818 527.70725632 C-315.4406266 527.67650145 -317.47564951 527.64605952 -319.51067352 527.61567688 C-340.17091116 527.30487455 -360.82449233 526.86615729 -381.4765625 526.203125 C-380.4865625 523.728125 -380.4865625 523.728125 -379.4765625 521.203125 C-378.8165625 521.203125 -378.1565625 521.203125 -377.4765625 521.203125 C-377.39728516 520.49446289 -377.31800781 519.78580078 -377.23632812 519.05566406 C-371.57879653 469.65384816 -361.40917531 420.64599414 -346.4765625 373.203125 C-346.25997986 372.51426208 -346.04339722 371.82539917 -345.82025146 371.11566162 C-328.05738717 314.81836469 -304.59944286 260.04549673 -274.4765625 209.203125 C-273.95239746 208.31044922 -273.42823242 207.41777344 -272.88818359 206.49804688 C-265.70359805 194.30050617 -258.07344033 182.4189302 -250.2265625 170.640625 C-249.60852249 169.7120015 -249.60852249 169.7120015 -248.97799683 168.76461792 C-242.98777809 159.78100963 -236.7998701 150.95502684 -230.4765625 142.203125 C-229.85281738 141.33776123 -229.22907227 140.47239746 -228.58642578 139.58081055 C-214.03197544 119.46290581 -198.72995309 99.63106351 -179.8828125 83.296875 C-177.6156832 81.32417807 -175.41916849 79.28901408 -173.22851562 77.23217773 C-166.88386308 71.30108267 -160.22702763 65.88104671 -153.32275391 60.61669922 C-151.46105397 59.19125057 -149.61502902 57.74712187 -147.76953125 56.30078125 C-106.36195647 24.16387585 -53.15466772 0.28489103 0 0 Z " fill="#00B5FC" transform="translate(3085.4765625,2145.796875)"/>
<path d="M0 0 C0.33 0 0.66 0 1 0 C3.03184335 23.33466 4.62040318 46.57443061 5 70 C5.02489502 71.43907715 5.02489502 71.43907715 5.05029297 72.90722656 C5.1815441 81.64109786 4.98024463 90.32326758 4.4921875 99.04296875 C4.44505615 99.90998413 4.3979248 100.77699951 4.34936523 101.67028809 C4.23444688 103.78027631 4.11744421 105.89015086 4 108 C-69.91329481 108.69654566 -143.81979011 109.26011078 -217.7369585 109.00769043 C-220.10213246 108.99965293 -222.46730687 108.99175816 -224.83248138 108.98388672 C-320.64158004 108.66395999 -416.44676564 108.13103194 -512.25 107 C-513.1472816 106.98944108 -514.0445632 106.97888216 -514.96903515 106.96800327 C-551.62315187 106.53655615 -588.27658389 106.05938003 -624.92904568 105.50413132 C-626.9640641 105.47337645 -628.99908701 105.44293452 -631.03411102 105.41255188 C-651.69434866 105.10174955 -672.34792983 104.66303229 -693 104 C-692.34 102.35 -691.68 100.7 -691 99 C-690.09432423 99.01407851 -690.09432423 99.01407851 -689.17035198 99.02844143 C-617.81330392 100.14218548 -617.81330392 100.14218548 -546.45507812 101.17675781 C-545.23659306 101.19371264 -545.23659306 101.19371264 -543.99349213 101.21100998 C-528.67173714 101.4208285 -513.34965367 101.60185626 -498.02734375 101.765625 C-497.1739326 101.77475426 -496.32052146 101.78388352 -495.44124937 101.79328942 C-490.84455074 101.8423937 -486.2478493 101.89122575 -481.65114594 101.93988419 C-477.93560913 101.97927762 -474.2200793 102.01924838 -470.50455475 102.05978012 C-377.64950145 103.07146491 -284.79358307 103.29527368 -191.93395656 103.51740915 C-177.2622005 103.55256844 -162.59044977 103.58954258 -147.91870117 103.62768555 C-146.87060897 103.63040982 -145.82251677 103.63313409 -144.7426642 103.63594092 C-139.47953737 103.64963028 -134.21641062 103.66334859 -128.95328391 103.67708123 C-85.96886628 103.78920014 -42.98443763 103.89577377 0 104 C0 69.68 0 35.36 0 0 Z " fill="#00648B" transform="translate(3397,2568)"/>
<path d="M0 0 C3.79769589 2.69836287 5.60529748 4.55766694 7 9 C7.15112305 11.3807373 7.15112305 11.3807373 7.01171875 13.95117188 C6.94210937 15.47212463 6.94210937 15.47212463 6.87109375 17.02380371 C6.81050781 18.16063599 6.74992187 19.29746826 6.6875 20.46875 C6.57254001 23.11188893 6.46118804 25.75493395 6.35546875 28.3984375 C6.32552826 29.13325096 6.29558777 29.86806442 6.26473999 30.62514496 C5.84484471 41.36033898 5.68852744 52.1025226 5.5 62.84375 C5.47964691 63.98435883 5.45929382 65.12496765 5.43832397 66.30014038 C5.3317415 72.27899645 5.22738158 78.25788696 5.125 84.23681641 C5.02476132 90.0887387 4.92104988 95.94059193 4.81598181 101.79242927 C3.61529482 168.90458237 2.85439051 236.00911084 2.70291841 303.13197883 C2.68140695 312.5919105 2.65514123 322.05182767 2.62875474 331.51174679 C2.58186957 348.36223471 2.53840916 365.21272945 2.49731445 382.06323242 C2.45754463 398.3672742 2.41602981 414.6713101 2.37231445 430.9753418 C2.36959018 431.99159955 2.36686591 433.00785731 2.36405908 434.05491076 C2.3503729 439.1565447 2.33665396 444.25817856 2.32291877 449.35981238 C2.21020651 491.23986241 2.10314034 533.11992537 2 575 C1.67 575 1.34 575 1 575 C-1.45905635 465.07774091 -1.45905635 465.07774091 -2 417 C-2.01071533 416.04851578 -2.02143066 415.09703156 -2.0324707 414.11671448 C-3.3235995 298.73659151 -3.2983574 183.37990862 -2 68 C-1.98903038 67.02385742 -1.97806076 66.04771484 -1.96675873 65.04199219 C-1.83638966 53.51098749 -1.69367051 41.9802235 -1.52918625 30.44965363 C-1.50034629 28.3996151 -1.47293455 26.34956166 -1.4458313 24.29949951 C-1.39623676 20.66570743 -1.34014015 17.03208921 -1.28125 13.3984375 C-1.26770981 12.36412598 -1.25416962 11.32981445 -1.24021912 10.26416016 C-1.22346634 9.33571289 -1.20671356 8.40726563 -1.18945312 7.45068359 C-1.17692505 6.65552338 -1.16439697 5.86036316 -1.15148926 5.04110718 C-1 3 -1 3 0 0 Z " fill="#0091C9" transform="translate(1040,3408)"/>
<path d="M0 0 C0.99 0 1.98 0 3 0 C3.03536362 0.86062546 3.07072723 1.72125092 3.10716248 2.60795593 C3.44301868 10.77146496 3.78111427 18.93487763 4.12164211 27.09819317 C4.29657767 31.29368473 4.4706874 35.48920698 4.64282227 39.68481445 C4.80938597 43.74385323 4.97823325 47.80279151 5.14857674 51.86167336 C5.21275003 53.39994845 5.27613983 54.93825647 5.33868217 56.47659874 C5.67391142 64.70890993 6.1170443 72.91529553 6.786026 81.1287384 C7.08399156 85.12706093 7.20603141 89.11721084 7.28125 93.125 C7.30886414 94.31633545 7.30886414 94.31633545 7.33703613 95.53173828 C7.4139312 98.85373593 7.48276387 102.17588728 7.55224609 105.49804688 C7.60488498 107.95710394 7.66175343 110.41604065 7.71875 112.875 C7.73232544 113.5983252 7.74590088 114.32165039 7.7598877 115.06689453 C7.86193571 119.44881159 8.12795013 123.79384867 8.48632812 128.16259766 C9.05660934 135.27923733 9.29986902 142.38802891 9.5 149.5234375 C9.54067309 150.88140882 9.58169657 152.23936969 9.62304688 153.59732056 C9.75206093 157.85645064 9.87631482 162.11571232 10 166.375 C10.14372134 171.31528071 10.28954528 176.25548599 10.43969727 181.19557571 C10.49787353 183.13986927 10.55271107 185.08426185 10.60742188 187.02865601 C10.64416016 188.24687042 10.68089844 189.46508484 10.71875 190.72021484 C10.75355469 191.91024109 10.78835938 193.10026733 10.82421875 194.32635498 C10.94858236 196.92542478 11.12845918 199.46191454 11.39453125 202.04522705 C11.45805786 202.71501398 11.52158447 203.38480091 11.58703613 204.07488441 C11.7701037 205.936 11.97895107 207.79452794 12.18945312 209.65274048 C11.95130974 213.86025987 10.64171543 215.77092334 8 219 C6.515 219.99 6.515 219.99 5 221 C4.26264817 217.68850476 3.8694899 214.61043202 3.84228516 211.22021484 C3.83189713 210.27490402 3.82150909 209.3295932 3.81080627 208.3556366 C3.80363083 207.31788589 3.79645538 206.28013519 3.7890625 205.2109375 C3.76290188 202.87068177 3.73626247 200.53043135 3.70922852 198.19018555 C3.69594513 196.92572601 3.68266174 195.66126648 3.66897583 194.35848999 C3.3435056 164.87621775 2.56471998 135.41026962 1.66212845 105.94057846 C1.56257733 102.69002497 1.46374938 99.43945 1.36495972 96.18887329 C0.75979696 76.34909492 0.14707376 56.51037479 -0.7109375 36.6796875 C-0.76333084 35.45951431 -0.81572418 34.23934113 -0.8697052 32.98219299 C-1.10026305 27.68519418 -1.34503708 22.38951999 -1.61694336 17.09448242 C-1.69913036 15.34554386 -1.78124886 13.59660207 -1.86328125 11.84765625 C-1.9078244 11.08923431 -1.95236755 10.33081238 -1.9982605 9.54940796 C-2.16483564 5.82225488 -2.10947555 3.15731961 0 0 Z " fill="#0092CC" transform="translate(1035,2101)"/>
</svg>
