<?xml version="1.0" standalone="no"?>
<!DOCTYPE svg PUBLIC "-//W3C//DTD SVG 20010904//EN"
 "http://www.w3.org/TR/2001/REC-SVG-20010904/DTD/svg10.dtd">
<svg version="1.0" xmlns="http://www.w3.org/2000/svg"
 width="256.000000pt" height="256.000000pt" viewBox="0 0 256.000000 256.000000"
 preserveAspectRatio="xMidYMid meet">

<g transform="translate(0.000000,256.000000) scale(0.100000,-0.100000)"
fill="#000000" stroke="none">
<path d="M1136 2540 c-303 -38 -541 -153 -752 -364 -142 -142 -233 -284 -298
-464 -94 -263 -94 -591 0 -854 48 -132 158 -329 174 -311 7 7 178 691 244 973
37 161 40 193 22 228 -9 17 -16 33 -16 36 0 17 91 50 138 50 73 1 95 -24 90
-105 l-3 -56 64 58 c79 73 156 112 222 113 58 1 93 -22 129 -85 23 -40 25 -55
25 -159 0 -94 -4 -127 -24 -185 -28 -84 -89 -205 -137 -272 l-34 -48 36 -3
c50 -5 125 34 216 112 101 86 144 141 159 201 44 178 194 376 343 451 58 28
79 34 135 34 153 0 201 -107 118 -265 -44 -84 -130 -165 -284 -270 -148 -101
-151 -105 -110 -185 32 -64 65 -84 147 -88 58 -4 77 0 126 22 110 51 252 171
412 349 59 65 94 74 100 26 6 -50 -187 -275 -329 -385 -72 -55 -208 -128 -268
-144 -171 -45 -324 33 -382 194 l-23 63 -49 -53 c-27 -29 -76 -74 -110 -100
-127 -95 -217 -122 -303 -89 l-46 17 -51 -28 c-39 -21 -66 -28 -109 -29 -66 0
-101 20 -134 79 l-21 36 -12 -52 c-7 -29 -39 -181 -71 -338 l-59 -285 42 -39
c93 -85 253 -179 395 -230 263 -94 591 -94 854 0 180 65 322 156 464 298 183
183 286 371 344 631 32 143 32 377 0 520 -58 260 -161 448 -344 631 -185 185
-384 293 -635 344 -114 23 -297 32 -395 20z"/>
<path d="M1730 1714 c-33 -31 -62 -72 -88 -127 -36 -74 -68 -174 -60 -183 9
-9 200 151 226 188 94 136 35 228 -78 122z"/>
<path d="M859 1652 c-49 -32 -109 -95 -174 -187 -32 -44 -49 -83 -64 -142 -12
-45 -21 -86 -21 -91 0 -5 19 -7 44 -5 37 5 54 0 109 -31 l66 -37 41 52 c58 74
115 174 140 249 26 78 24 168 -5 200 -27 29 -81 26 -136 -8z"/>
</g>
</svg>
