<?xml version="1.0" encoding="UTF-8"?>
<!DOCTYPE svg PUBLIC "-//W3C//DTD SVG 1.1//EN" "http://www.w3.org/Graphics/SVG/1.1/DTD/svg11.dtd">
<svg xmlns="http://www.w3.org/2000/svg" version="1.1" width="1067px" height="1067px" style="shape-rendering:geometricPrecision; text-rendering:geometricPrecision; image-rendering:optimizeQuality; fill-rule:evenodd; clip-rule:evenodd" xmlns:xlink="http://www.w3.org/1999/xlink">
<g><path style="opacity:0.999" fill="#00b7fe" d="M 282.5,989.5 C 282.168,943.997 282.501,898.664 283.5,853.5C 323.049,899.058 371.382,911.225 428.5,890C 468.702,872.798 497.202,843.965 514,803.5C 533.761,752.503 536.761,700.503 523,647.5C 511.774,606.156 488.274,573.99 452.5,551C 422.016,535.356 390.016,531.356 356.5,539C 326.044,546.21 301.71,562.376 283.5,587.5C 282.833,570.662 282.167,553.662 281.5,536.5C 280.893,536.624 280.56,536.957 280.5,537.5C 263.928,542.607 246.928,545.44 229.5,546C 204.447,546.97 179.447,546.47 154.5,544.5C 154.5,548.5 154.5,552.5 154.5,556.5C 171.329,557.54 187.329,561.707 202.5,569C 212.806,576.102 218.639,585.936 220,598.5C 221.153,665.643 221.653,732.81 221.5,800C 221.333,864.5 221.167,929 221,993.5C 220.312,1009.41 212.812,1020.58 198.5,1027C 182.375,1031.9 165.875,1033.73 149,1032.5C 111.844,1036.01 80.8444,1024.01 56,996.5C 43.5095,981.384 35.8428,964.051 33,944.5C 32.3333,669.833 32.3333,395.167 33,120.5C 40.7441,77.756 65.2441,49.5894 106.5,36C 111.406,34.5235 116.406,33.5235 121.5,33C 395.5,32.3333 669.5,32.3333 943.5,33C 986.786,40.2849 1015.29,64.7849 1029,106.5C 1030.32,111.1 1031.32,115.766 1032,120.5C 1032.67,395.167 1032.67,669.833 1032,944.5C 1024.26,987.244 999.756,1015.41 958.5,1029C 953.594,1030.48 948.594,1031.48 943.5,1032C 742.833,1032.67 542.167,1032.67 341.5,1032C 326.145,1030.88 311.812,1026.55 298.5,1019C 288.834,1011.5 283.501,1001.67 282.5,989.5 Z M 760.5,535.5 C 819.199,531.427 863.032,554.76 892,605.5C 905.945,631.057 912.445,658.39 911.5,687.5C 834.5,687.5 757.5,687.5 680.5,687.5C 679.125,724.083 682.958,760.083 692,795.5C 713.704,863.776 759.537,889.609 829.5,873C 863.137,862.781 886.97,841.614 901,809.5C 904.69,813.689 908.19,818.022 911.5,822.5C 897.197,855.634 872.864,877.801 838.5,889C 796.453,902.87 754.453,902.87 712.5,889C 668.12,868.941 638.954,835.441 625,788.5C 615.608,751.207 613.941,713.54 620,675.5C 626.984,630.345 647.818,593.178 682.5,564C 705.882,547.262 731.882,537.762 760.5,535.5 Z"/></g>
<g><path style="opacity:0.686" fill="#0092cc" d="M 280.5,537.5 C 280.56,536.957 280.893,536.624 281.5,536.5C 282.167,553.662 282.833,570.662 283.5,587.5C 283.217,588.289 282.717,588.956 282,589.5C 281.832,571.995 281.332,554.662 280.5,537.5 Z"/></g>
<g><path style="opacity:0.999" fill="#00b6fd" d="M 847.5,647.5 C 847.5,656.167 847.5,664.833 847.5,673.5C 792.331,673.832 737.331,673.499 682.5,672.5C 686.901,635.44 700.735,602.44 724,573.5C 751.644,543.601 782.811,539.434 817.5,561C 829.249,570.989 837.083,583.489 841,598.5C 845.364,614.545 847.53,630.878 847.5,647.5 Z"/></g>
<g><path style="opacity:0.999" fill="#00b7fd" d="M 360.5,555.5 C 394.623,555.14 420.456,569.473 438,598.5C 453.491,625.787 462.491,655.12 465,686.5C 469.035,724.669 466.368,762.335 457,799.5C 450.374,824.27 437.541,845.104 418.5,862C 394.139,879.837 367.139,885.504 337.5,879C 313,868.837 294.5,852.003 282,828.5C 281.333,757.167 281.333,685.833 282,614.5C 297.507,580.474 323.674,560.808 360.5,555.5 Z"/></g>
<g><path style="opacity:0.439" fill="#00648b" d="M 847.5,647.5 C 848.493,656.318 848.827,665.318 848.5,674.5C 792.829,674.833 737.163,674.5 681.5,673.5C 681.624,672.893 681.957,672.56 682.5,672.5C 737.331,673.499 792.331,673.832 847.5,673.5C 847.5,664.833 847.5,656.167 847.5,647.5 Z"/></g>
<g><path style="opacity:0.686" fill="#0090c8" d="M 283.5,853.5 C 282.501,898.664 282.168,943.997 282.5,989.5C 281.335,943.335 281.168,897.002 282,850.5C 283.039,851.244 283.539,852.244 283.5,853.5 Z"/></g>
</svg>
