<?xml version="1.0" standalone="no"?>
<!DOCTYPE svg PUBLIC "-//W3C//DTD SVG 20010904//EN"
 "http://www.w3.org/TR/2001/REC-SVG-20010904/DTD/svg10.dtd">
<svg version="1.0" xmlns="http://www.w3.org/2000/svg"
 width="256.000000pt" height="256.000000pt" viewBox="0 0 256.000000 256.000000"
 preserveAspectRatio="xMidYMid meet">

<g transform="translate(0.000000,256.000000) scale(0.100000,-0.100000)"
fill="#000000" stroke="none">
<path d="M1115 2306 c-230 -36 -412 -133 -582 -309 -134 -139 -206 -261 -252
-428 -47 -169 -47 -410 0 -578 30 -105 138 -325 154 -310 5 6 140 540 190 753
34 148 37 175 23 251 -4 25 39 47 105 53 64 6 87 -14 87 -75 l0 -44 58 47
c133 109 219 112 282 8 20 -32 22 -45 18 -152 -3 -108 -7 -123 -39 -197 -20
-44 -52 -106 -72 -138 l-37 -57 34 0 c44 0 135 60 212 141 49 52 65 76 78 124
28 98 82 183 171 271 117 117 209 148 300 104 68 -33 80 -80 43 -177 -26 -70
-120 -169 -243 -255 -44 -30 -88 -64 -98 -75 -24 -27 -14 -64 28 -109 30 -32
37 -34 94 -34 34 0 78 7 98 15 63 26 155 100 275 220 117 117 149 135 156 90
5 -33 -55 -113 -173 -230 -111 -111 -176 -157 -282 -201 -73 -30 -169 -32
-228 -5 -53 24 -121 99 -136 150 -7 23 -14 41 -17 41 -3 0 -37 -31 -77 -68
-117 -111 -223 -153 -313 -121 -25 8 -37 7 -72 -11 -77 -39 -162 -25 -200 34
-11 17 -20 26 -20 21 0 -6 -25 -129 -55 -273 l-55 -263 36 -32 c287 -253 749
-316 1110 -152 104 48 177 98 273 190 148 142 224 260 280 438 62 195 60 452
-4 646 -60 178 -128 283 -271 422 -177 170 -365 255 -612 279 -130 12 -164 12
-267 -4z"/>
<path d="M1683 1649 c-51 -33 -101 -118 -138 -238 -9 -30 3 -24 95 54 78 64
113 119 108 168 -4 39 -22 44 -65 16z"/>
<path d="M945 1582 c-86 -53 -193 -208 -209 -304 -7 -38 -6 -38 26 -38 18 0
57 -14 86 -30 l53 -29 44 60 c71 97 107 178 113 257 3 55 1 71 -13 85 -22 22
-62 22 -100 -1z"/>
</g>
</svg>
